<svg width="46" height="46" viewBox="0 0 46 46" fill="none" xmlns="http://www.w3.org/2000/svg"><path transform="rotate(45 32.9 9.9)" fill="#252628" d="M32.9 9.9H36.9V41.9H32.9z"/><path transform="rotate(-45 10.272 12.728)" fill="#252628" d="M10.272 12.728H14.272V44.728H10.272z"/><path fill-rule="evenodd" clip-rule="evenodd" d="M25.8284 28.2843L23 25.4558L20.1716 28.2843C21.7337 26.7222 24.2663 26.7222 25.8284 28.2843Z" fill="#252628"/><path fill-rule="evenodd" clip-rule="evenodd" d="M28.6569 19.799L25.8284 22.6274L28.6569 25.4558C27.0948 23.8937 27.0948 21.3611 28.6569 19.799Z" fill="#252628"/><path fill-rule="evenodd" clip-rule="evenodd" d="M20.1716 16.9706L23 19.799L25.8284 16.9706C24.2663 18.5327 21.7337 18.5327 20.1716 16.9706Z" fill="#252628"/><path fill-rule="evenodd" clip-rule="evenodd" d="M17.3431 25.4558L20.1716 22.6274L17.3431 19.799C18.9052 21.3611 18.9052 23.8937 17.3431 25.4558Z" fill="#252628"/></svg>