<svg width="32" height="32" viewBox="0 0 32 32" fill="none" xmlns="http://www.w3.org/2000/svg"><g clip-path="url(#clip0_106_972)"><rect x="2" y="2" width="28" height="28" rx="3.342" fill="#A10D15"/><path d="M30.0259 1.98826V30.0142H2.00004V1.98826H30.0259Z" fill="#A10D15"/><path d="M1.99998 15.4146H30.0259V16.4146H1.99998V15.4146Z" fill="#FDF5D4"/><path d="M15.5969 1.9856H16.5969V30.0116H15.5969V1.9856Z" fill="#FDF5D4"/><path d="M12.5099 18.6046L13.0669 18.0476C14.1985 16.916 14.1985 15.0812 13.0669 13.9496L12.5099 13.3926L13.4071 12.4954L13.9641 13.0524C15.0957 14.184 16.9305 14.184 18.0621 13.0524L18.6191 12.4954L19.5164 13.3926L18.9594 13.9496C17.8278 15.0812 17.8278 16.916 18.9594 18.0476L19.5164 18.6046L18.6191 19.5018L18.0621 18.9448C16.9305 17.8132 15.0957 17.8132 13.9641 18.9448L13.4071 19.5018L12.5099 18.6046Z" fill="#FDF5D4"/></g><rect x="1.164" y="1.164" width="29.671" height="29.671" rx="4.178" stroke="#278D75" stroke-width="1.671"/><defs><clipPath id="clip0_106_972"><rect x="2" y="2" width="28" height="28" rx="3.342" fill="#fff"/></clipPath></defs></svg>