<svg width="86" height="86" viewBox="0 0 86 86" fill="none" xmlns="http://www.w3.org/2000/svg"><path d="M7.00431 7.00431C10.8488 3.15982 16.0631 1 21.5 1H85V64.5C85 69.9369 82.8402 75.1512 78.9957 78.9957C75.1512 82.8402 69.9369 85 64.5 85H21.5C16.0631 85 10.8488 82.8402 7.00431 78.9957C3.15982 75.1512 1 69.9369 1 64.5V21.5C1 16.0631 3.15982 10.8488 7.00431 7.00431Z" stroke="#fff" stroke-width="2"/><path d="M71.0654 32.2412H60.7433L50.9102 42.9999V21.4999H42.946V26.7395C42.6898 26.4019 42.4104 26.07 42.1077 25.744C40.4779 24.143 38.5311 22.901 36.3923 22.0978C34.2536 21.2947 31.9704 20.9482 29.6897 21.0807C27.5003 20.9799 25.3175 21.3898 23.3139 22.2779C21.3102 23.1661 19.5406 24.5082 18.145 26.1981C17.0157 27.5805 16.1971 29.1898 15.7451 30.9166C15.293 32.6435 15.218 34.4474 15.5252 36.2058C17.3765 44.4845 25.0614 45.8118 30.7027 46.5454C35.1564 47.1217 39.4354 47.9426 39.3132 51.9073C39.1909 55.8719 34.5451 57.0072 31.4363 57.0072C23.4895 57.0072 23.2275 51.1388 23.2275 51.1388H14.7393C14.886 54.3602 16.1169 57.4376 18.2324 59.8715C21.2015 63.2075 25.6552 64.8841 31.4712 64.8841C35.6541 64.9788 39.7278 63.5443 42.9285 60.8496V64.3427H50.8928V54.3001L53.7222 51.2261L61.7738 64.4475H71.0479L59.381 45.0783L71.0654 32.2412ZM23.5069 34.337C22.8083 31.2631 25.8648 28.5385 29.8469 28.5385C33.34 28.5385 36.9903 29.3419 38.3526 34.337H42.946V41.917C37.2348 37.2363 24.8343 40.1705 23.5069 34.337Z" fill="#fff"/></svg>