<svg width="80" height="80" viewBox="0 0 80 80" fill="none" xmlns="http://www.w3.org/2000/svg"><path fill-rule="evenodd" clip-rule="evenodd" d="M51.9158 28.1299C51.1838 27.6819 50.6851 26.9604 50.5431 26.1436L49.4734 19.998C49.3694 19.3995 48.8888 18.9216 48.2614 18.8131C42.8408 17.8755 37.2744 17.8605 31.844 18.7795C31.2227 18.8846 30.743 19.3525 30.6303 19.9433L29.4412 26.1741C29.2888 26.9729 28.7949 27.6758 28.0773 28.1152L14.8397 36.2208C13.6766 36.9332 12.1488 36.7775 11.1707 35.8468L10.8302 35.5228C5.27895 30.2411 5.27895 21.6776 10.8301 16.3959C11.428 15.827 12.0783 15.3046 12.783 14.8598C30.1296 3.90998 49.9338 3.93881 67.2644 14.9261C67.9584 15.3661 68.5994 15.8817 69.1891 16.4427C74.7148 21.7003 74.7148 30.2246 69.1891 35.4822L68.8051 35.8475C67.8274 36.7778 66.3004 36.9338 65.1374 36.2218L51.9158 28.1299ZM9.45848 51.3392L28.2616 37.9082C29.3923 37.1005 30.747 36.6665 32.1365 36.6665H47.8174C49.2354 36.6665 50.6167 37.1188 51.7601 37.9575L70.6098 51.7832C72.3218 53.0388 73.3334 55.0355 73.3334 57.1588V66.6665C73.3334 70.3485 70.3488 73.3332 66.6668 73.3332H13.3334C9.65152 73.3332 6.66675 70.3485 6.66675 66.6665V56.7638C6.66675 54.6108 7.70652 52.5905 9.45848 51.3392Z" fill="#FDF5D4"/><path d="M41.1769 64V62.5415C41.1769 59.5812 43.5812 57.1769 46.5415 57.1769H48V54.8231H46.5415C43.5812 54.8231 41.1769 52.4188 41.1769 49.4585V48H38.8231V49.4585C38.8231 52.4188 36.4188 54.8231 33.4585 54.8231H32V57.1769H33.4585C36.4188 57.1769 38.8231 59.5812 38.8231 62.5415V64H41.1769Z" fill="#278D75"/></svg>