<svg width="37" height="31" viewBox="0 0 37 31" fill="none" xmlns="http://www.w3.org/2000/svg"><path fill-rule="evenodd" clip-rule="evenodd" d="M2.97481 13.4148C12.6385 9.18111 19.0824 6.39 22.3067 5.04148C31.5125 1.19116 33.4254 0.522321 34.6722 0.500235C34.9465 0.495378 35.5596 0.563716 35.9568 0.88778C36.2921 1.16141 36.3844 1.53105 36.4286 1.79049C36.4727 2.04992 36.5277 2.64092 36.484 3.10271C35.9851 8.3735 33.8265 21.1643 32.7284 27.0677C32.2637 29.5656 31.3487 30.4032 30.4629 30.4851C28.5379 30.6633 27.0761 29.2059 25.2116 27.9769C22.294 26.0538 20.6458 24.8566 17.8138 22.98C14.541 20.8113 16.6626 19.6193 18.5278 17.6712C19.0159 17.1614 27.4977 9.40377 27.6618 8.70002C27.6824 8.61201 27.7014 8.28393 27.5076 8.1107C27.3138 7.93746 27.0277 7.9967 26.8213 8.04381C26.5286 8.1106 21.8678 11.2084 12.8388 17.3371C11.5158 18.2506 10.3175 18.6957 9.24386 18.6723C8.06026 18.6466 5.7835 17.9994 4.09096 17.4462C2.01499 16.7676 0.365049 16.4088 0.508721 15.2564C0.583555 14.6562 1.40559 14.0423 2.97481 13.4148Z" fill="#fff"/></svg>