<svg width="285" height="40" viewBox="0 0 285 40" fill="none" xmlns="http://www.w3.org/2000/svg">
<path d="M55.3983 8.46167C59.315 8.46167 62.56 10.1767 63.9066 11.4617L61.6416 14.2167C60.5416 13.2367 58.0916 11.89 55.3983 11.89C50.44 11.89 47.38 15.3183 47.38 19.97C47.38 24.6217 50.3183 28.05 55.46 28.05C58.46 28.05 61.03 26.4583 62.1933 25.3567L64.3333 28.2333C62.9866 29.6417 59.62 31.54 55.4583 31.54C48.175 31.54 43.705 26.6417 43.705 20.0317C43.6433 13.3583 48.2366 8.46167 55.3983 8.46167ZM77.925 8.46167C84.6583 8.46167 89.555 13.3583 89.555 19.97C89.555 26.6417 84.6583 31.4783 77.925 31.4783C71.1916 31.4783 66.295 26.5817 66.295 19.97C66.2333 13.3583 71.13 8.46167 77.925 8.46167ZM77.925 28.05C82.5166 28.05 85.8833 24.6217 85.8833 19.97C85.8833 15.3183 82.5166 11.89 77.925 11.89C73.3333 11.89 69.9666 15.3183 69.9666 19.97C69.9666 24.6217 73.3333 28.05 77.925 28.05ZM112.693 24.6217C112.693 27.8667 110.61 30.9883 105.225 30.9883H93.4716V8.95167H104.552C109.018 8.95167 111.59 11.7067 111.59 14.8283C111.59 16.6033 110.795 18.195 108.837 19.48C110.795 20.1533 112.693 21.6233 112.693 24.6217ZM97.0833 12.4417V18.3183L104.062 18.2567C106.572 18.2567 107.857 16.8483 107.857 15.2567C107.857 13.7267 106.755 12.44 104.552 12.44L97.0833 12.4417ZM105.47 27.56C108.04 27.56 109.02 26.1533 109.02 24.6217C109.02 22.97 107.857 21.6217 105.53 21.6217H97.145V27.6217H105.47V27.56ZM127.2 19.6633L136.995 31.0483H132.158L124.017 21.4383H119.855V31.0483H116.243V9.01167H119.855V18.1333H124.018L131.975 9.01167H136.812L127.2 19.6617V19.6633Z" fill="#21409A"/>
<path d="M148.137 8.46167C154.87 8.46167 159.767 13.3583 159.767 19.97C159.767 26.6417 154.87 31.4783 148.137 31.4783C141.403 31.4783 136.505 26.5817 136.505 19.97C136.505 13.3583 141.403 8.46167 148.137 8.46167ZM148.137 28.05C152.727 28.05 156.093 24.6217 156.093 19.97C156.093 15.3183 152.727 11.89 148.137 11.89C143.545 11.89 140.178 15.3183 140.178 19.97C140.178 24.6217 143.607 28.05 148.137 28.05ZM184.192 8.95167H187.68V30.9883H184.068V14.645L176.845 24.3167H174.642L167.418 14.645V31.05H163.807V9.01334H167.297L175.743 20.3383L184.192 8.95167ZM204.268 17.95C209.103 17.95 211.735 20.7667 211.735 24.4383C211.735 28.1117 209.103 30.9883 204.512 30.9883H192.515V8.95167H209.655V12.4417H196.127V18.0117H204.268V17.95ZM204.39 27.56C206.9 27.56 208.063 26.1533 208.063 24.5C208.063 22.8467 206.9 21.44 204.39 21.44H196.187V27.56H204.39ZM231.937 30.9883L229.548 25.48H219.143L216.755 30.9883H212.777L222.327 8.95167H226.305L235.853 30.9883H231.937ZM220.49 22.1733H228.08L224.285 13.3583L220.49 22.175V22.1733ZM254.952 8.95167H258.563V30.9883H254.952V21.5617H242.22V30.9883H238.608V8.95167H242.22V18.0733H254.952V8.95167ZM274.48 19.6633L284.273 31.0483H279.438L271.297 21.4383H267.133V31.0483H263.522V9.01167H267.133V18.1333H271.297L279.253 9.01167H284.09L274.48 19.6617V19.6633Z" fill="#21409A"/>
<path d="M0 19.9701C0 30.0701 8.20333 38.2717 18.3033 38.2717H19.0367V31.3551H18.3033C12.0583 31.3551 6.91667 26.2751 6.91667 19.9701C6.91667 13.7251 11.9983 8.58342 18.3033 8.58342H19.0367V1.66675H18.3033C8.20333 1.66675 0 9.87008 0 19.9701Z" fill="#F04E53"/>
<path d="M21.975 2.03345V11.5834H18.3016C16.0627 11.5883 13.9168 12.48 12.3337 14.0634C10.7507 15.6467 9.85938 17.7928 9.85498 20.0318C9.85983 22.2708 10.7515 24.4167 12.3349 25.9997C13.9183 27.5828 16.0643 28.474 18.3033 28.4784H21.975V38.0284C26.1102 37.189 29.8272 34.9436 32.4943 31.6737C35.1613 28.4039 36.6138 24.3114 36.605 20.0918C36.6666 11.0934 30.3616 3.74845 21.975 2.03345Z" fill="#21409A"/>
</svg>
