<svg width="501" height="600" viewBox="0 0 501 600" fill="none" xmlns="http://www.w3.org/2000/svg">
<g clip-path="url(#clip0_357_1723)">
<path d="M500.559 471.188H448.433V586.032H500.559V471.188Z" fill="#A6CEAC"/>
<path d="M500.56 561.058H476.197C479.325 559.26 486.25 554.906 486.559 551.514C486.647 550.597 486.277 549.813 485.466 549.178C484.691 548.57 483.845 548.394 482.929 548.641C479.686 549.531 476.426 555.964 474.928 559.33V471.196C474.928 470.95 474.734 470.756 474.487 470.756C474.241 470.756 474.047 470.95 474.047 471.196V558.652C472.69 554.642 469.994 547.751 467.227 546.94C466.54 546.737 465.861 546.905 465.262 547.425C464.601 548.006 464.275 548.764 464.311 549.672C464.425 553.417 470.752 559.004 473.245 561.066H448.433C448.186 561.066 447.992 561.26 447.992 561.507C447.992 561.754 448.186 561.948 448.433 561.948H473.835C472.884 564.177 469.166 571.932 463.632 571.932C463.385 571.932 463.192 572.126 463.192 572.373C463.192 572.62 463.385 572.813 463.632 572.813C468.91 572.813 472.505 566.821 474.056 563.613V586.041C474.056 586.288 474.25 586.482 474.496 586.482C474.743 586.482 474.937 586.288 474.937 586.041V563.243C476.479 565.799 480.144 570.602 486.109 570.91C486.109 570.91 486.127 570.91 486.136 570.91C486.365 570.91 486.567 570.725 486.576 570.496C486.585 570.249 486.4 570.046 486.162 570.038C479.933 569.72 476.267 563.878 475.219 561.956H500.56C500.806 561.956 501 561.763 501 561.516C501 561.269 500.806 561.075 500.56 561.075V561.058ZM483.175 549.487C483.36 549.434 483.536 549.407 483.713 549.407C484.144 549.407 484.541 549.557 484.929 549.866C485.493 550.306 485.739 550.826 485.686 551.434C485.422 554.281 478.937 558.511 475.386 560.511C476.62 557.647 480.03 550.342 483.175 549.487ZM465.201 549.637C465.183 548.993 465.394 548.491 465.853 548.086C466.117 547.848 466.381 547.733 466.663 547.733C466.769 547.733 466.875 547.751 466.989 547.777C469.439 548.491 472.32 556.061 473.65 560.238C471.148 558.149 465.297 552.906 465.201 549.628V549.637Z" fill="black"/>
<path d="M440.503 363.217H340.162V586.032H440.503V363.217Z" fill="#3B9452"/>
<path d="M440.503 420.833H395.707C399.196 418.119 410.113 409.209 409.629 404.186C409.514 403.014 408.836 402.124 407.602 401.533C406.386 400.952 405.144 400.952 403.91 401.533C399.531 403.631 396.315 412.884 394.853 417.907V363.208C394.853 362.961 394.659 362.767 394.412 362.767C394.165 362.767 393.971 362.961 393.971 363.208V419.07C391.901 414.311 386.394 402.82 381.116 401.595C379.768 401.278 378.526 401.63 377.407 402.644C375.812 404.089 375.169 405.719 375.486 407.482C376.517 413.201 387.645 418.744 392.271 420.824H340.171C339.924 420.824 339.73 421.018 339.73 421.265C339.73 421.511 339.924 421.705 340.171 421.705H393.584C391.513 424.728 382.984 436.775 378.296 437.215C378.05 437.242 377.874 437.453 377.9 437.691C377.918 437.92 378.111 438.088 378.341 438.088C378.358 438.088 378.367 438.088 378.385 438.088C383.266 437.629 391.381 426.438 393.971 422.692V586.014C393.971 586.261 394.165 586.455 394.412 586.455C394.659 586.455 394.853 586.261 394.853 586.014V425.829C396.121 428.835 399.117 432.809 406.166 436.246C406.386 436.352 406.651 436.263 406.756 436.043C406.862 435.823 406.774 435.558 406.554 435.453C396.386 430.491 395.011 424.323 394.853 422.128V421.908L395.196 422.049L395.055 421.696H440.512C440.758 421.696 440.952 421.502 440.952 421.256C440.952 421.009 440.758 420.815 440.512 420.815L440.503 420.833ZM404.289 402.335C404.783 402.097 405.276 401.974 405.761 401.974C406.245 401.974 406.73 402.089 407.215 402.326C408.166 402.776 408.66 403.41 408.748 404.265C409.188 408.795 398.509 417.519 395.143 420.145C396.165 416.294 399.619 404.574 404.289 402.335ZM376.349 407.332C376.085 405.869 376.622 404.547 377.997 403.296C378.684 402.67 379.398 402.362 380.173 402.362C380.411 402.362 380.658 402.388 380.905 402.45C386.147 403.666 392.007 416.708 393.584 420.436C389.936 418.85 377.362 412.998 376.34 407.323L376.349 407.332Z" fill="black"/>
<path d="M332.232 475.1H140.96V586.032H332.232V475.1Z" fill="#B9CF7A"/>
<path d="M332.232 526.371H230.419C235.318 524.274 247.24 518.713 248.473 513.664C248.764 512.492 248.473 511.408 247.636 510.447C246.579 509.24 245.293 508.711 243.83 508.879C238.103 509.531 231.027 520.969 228.631 525.12V475.1C228.631 474.854 228.437 474.66 228.19 474.66C227.943 474.66 227.75 474.854 227.75 475.1V524.08C225.943 518.872 221.617 507.654 217.388 506.358C216.445 506.067 215.555 506.253 214.744 506.905C214.066 507.451 213.713 508.2 213.705 509.125C213.634 514.122 223.873 523.587 227.009 526.371H140.951C140.705 526.371 140.511 526.565 140.511 526.812C140.511 527.059 140.705 527.253 140.951 527.253H227.441L227.221 527.658L227.274 527.641C225.741 530.531 220.674 538.744 212.207 539.255C211.96 539.273 211.775 539.476 211.793 539.722C211.81 539.96 212.004 540.137 212.233 540.137C212.242 540.137 212.251 540.137 212.26 540.137C220.63 539.634 225.811 532.056 227.732 528.636V586.041C227.732 586.288 227.926 586.482 228.173 586.482C228.419 586.482 228.613 586.288 228.613 586.041V528.301C230.992 531.756 238.138 540.886 245.619 537.969C245.848 537.881 245.953 537.625 245.865 537.396C245.777 537.167 245.522 537.052 245.293 537.149C238.085 539.969 230.798 529.985 228.974 527.27H332.205C332.452 527.27 332.646 527.077 332.646 526.83C332.646 526.583 332.452 526.389 332.205 526.389L332.232 526.371ZM243.927 509.751C244.068 509.733 244.209 509.725 244.35 509.725C245.345 509.725 246.209 510.156 246.967 511.02C247.619 511.76 247.83 512.553 247.61 513.444C246.403 518.379 233.221 524.23 229.186 525.913C231.309 522.212 238.499 510.359 243.927 509.742V509.751ZM214.586 509.134C214.595 508.473 214.832 507.962 215.299 507.583C215.705 507.257 216.11 507.099 216.551 507.099C216.736 507.099 216.93 507.134 217.132 507.187C221.229 508.438 225.785 520.978 227.274 525.402C223.882 522.353 214.533 513.549 214.595 509.134H214.586Z" fill="black"/>
<path d="M133.03 475.1H0.440674V586.032H133.03V475.1Z" fill="#395838"/>
<path d="M133.03 558.943H67.1759V475.1C67.1759 474.854 66.9821 474.66 66.7354 474.66C66.4887 474.66 66.2948 474.854 66.2948 475.1V558.943H0.440556C0.193845 558.943 0 559.136 0 559.383C0 559.63 0.193845 559.824 0.440556 559.824H66.2948V583.67C62.7704 577.052 51.9768 574.012 51.4657 573.871C51.2278 573.809 50.9899 573.941 50.9282 574.179C50.8666 574.417 50.9987 574.655 51.2366 574.726C51.3688 574.761 64.1097 578.348 66.2155 585.821C64.3916 586.825 55.3602 591.963 54.1884 596.008C53.9593 596.792 54.0298 597.506 54.3822 598.123C54.9461 599.119 55.6862 599.33 56.2149 599.33H56.2414C59.1931 599.286 63.5546 592.492 65.7838 588.667C65.2463 591.937 64.7617 597.206 66.6561 599.18C67.1759 599.727 67.8368 600 68.621 600C68.8589 600 69.1056 599.974 69.3699 599.921C70.2951 599.736 70.9383 599.242 71.2819 598.449C72.7005 595.162 68.1187 587.416 67.2552 586.015L67.8103 584.966L67.405 585.177C68.0482 583.142 70.3744 578.374 78.2251 577.158C78.463 577.123 78.6304 576.894 78.5951 576.656C78.5599 576.418 78.3396 576.25 78.0929 576.286C71.37 577.317 68.4271 580.956 67.1848 583.468V559.815H133.039C133.286 559.815 133.48 559.621 133.48 559.374C133.48 559.128 133.286 558.934 133.039 558.934L133.03 558.943ZM56.2237 598.44C55.9506 598.431 55.5365 598.37 55.1488 597.682C54.9109 597.268 54.8756 596.792 55.0342 596.246C55.9594 593.065 62.6911 588.861 65.6076 587.178C63.3255 591.223 58.7437 598.414 56.2237 598.449V598.44ZM70.4625 598.097C70.2422 598.616 69.8193 598.925 69.1937 599.048C68.3743 599.207 67.7487 599.048 67.2817 598.555C65.6252 596.828 66.1627 591.47 66.7706 588.068L66.8411 588.359L66.9997 587.301C68.7091 590.245 71.4582 595.814 70.4713 598.088L70.4625 598.097Z" fill="black"/>
<path d="M332.232 363.217H220.049V467.169H332.232V363.217Z" fill="#40A36D"/>
<path d="M332.232 380.013H256.21C258.544 378.286 263.69 374.126 263.664 371.077C263.664 370.17 263.223 369.429 262.377 368.874C261.496 368.293 260.606 368.187 259.752 368.557C257.602 369.491 256.13 373.448 255.276 376.532V363.208C255.276 362.961 255.082 362.767 254.835 362.767C254.588 362.767 254.394 362.961 254.394 363.208V378.057C253.02 374.638 250.28 368.636 247.874 368.046C247.293 367.905 246.746 368.055 246.288 368.486C245.812 368.927 245.592 369.5 245.627 370.178C245.768 373.219 251.293 378.092 253.593 379.996H220.057C219.811 379.996 219.617 380.189 219.617 380.436C219.617 380.683 219.811 380.877 220.057 380.877H254.024C251.469 384.719 247.478 390.271 246.385 390.615C246.156 390.685 246.024 390.941 246.094 391.17C246.165 391.399 246.42 391.531 246.649 391.461C248.174 390.976 252.447 384.816 254.403 381.899V467.151C254.403 467.398 254.597 467.592 254.844 467.592C255.091 467.592 255.284 467.398 255.284 467.151V382.287C256.844 385.274 260.298 391.337 263.073 392.404C263.126 392.421 263.179 392.43 263.232 392.43C263.408 392.43 263.576 392.324 263.646 392.148C263.734 391.919 263.62 391.663 263.391 391.575C260.571 390.491 256.677 383.089 255.557 380.877H332.249C332.496 380.877 332.69 380.683 332.69 380.436C332.69 380.189 332.496 379.996 332.249 379.996L332.232 380.013ZM260.104 369.368C260.324 369.271 260.545 369.227 260.765 369.227C261.126 369.227 261.505 369.35 261.893 369.614C262.483 370.002 262.774 370.487 262.783 371.086C262.8 373.58 258.122 377.528 255.478 379.458C256.148 376.25 257.804 370.363 260.104 369.368ZM246.508 370.152C246.491 369.729 246.614 369.403 246.896 369.139C247.081 368.962 247.266 368.883 247.469 368.883C247.539 368.883 247.601 368.883 247.68 368.909C249.68 369.394 252.438 375.457 253.866 379.079C251.09 376.753 246.623 372.523 246.517 370.143L246.508 370.152Z" fill="black"/>
<path d="M212.119 363.217H67.8987V467.169H212.119V363.217Z" fill="#89B292"/>
<path d="M212.119 414.752H143.057C146.388 413.21 152.873 409.826 153.419 406.583C153.587 405.596 153.225 404.697 152.353 403.913C151.516 403.172 150.573 402.917 149.56 403.146C146.238 403.904 142.916 410.002 141.401 413.157V363.217C141.401 362.97 141.207 362.776 140.96 362.776C140.714 362.776 140.52 362.97 140.52 363.217V410.663C139.639 406.988 138.053 402.212 135.63 401.119C134.713 400.705 133.762 400.811 132.792 401.445C131.568 402.247 130.951 403.287 130.951 404.53C130.969 408.284 136.925 412.91 139.533 414.752H67.8986C67.6519 414.752 67.458 414.946 67.458 415.193C67.458 415.439 67.6519 415.633 67.8986 415.633H140.299L140.15 416.003H140.167C139.269 417.942 136.705 422.155 131.462 421.397C131.215 421.361 130.995 421.529 130.96 421.767C130.924 422.005 131.092 422.234 131.33 422.269C136.405 423.009 139.233 419.484 140.52 417.184V467.169C140.52 467.416 140.714 467.61 140.96 467.61C141.207 467.61 141.401 467.416 141.401 467.169V416.435C143.172 418.497 147.622 423.062 152.415 423.062C152.935 423.062 153.454 423.009 153.983 422.895C154.221 422.842 154.371 422.604 154.318 422.366C154.265 422.128 154.027 421.987 153.789 422.031C148.776 423.15 143.577 417.634 141.886 415.633H212.119C212.366 415.633 212.559 415.439 212.559 415.193C212.559 414.946 212.366 414.752 212.119 414.752ZM149.763 404.01C149.939 403.974 150.106 403.948 150.274 403.948C150.811 403.948 151.305 404.159 151.78 404.574C152.424 405.146 152.679 405.746 152.565 406.433C152.08 409.28 145.392 412.778 141.824 414.347C143.049 411.703 146.538 404.75 149.763 404.01ZM131.832 404.521C131.832 403.578 132.299 402.82 133.268 402.177C133.709 401.895 134.123 401.745 134.519 401.745C134.766 401.745 135.013 401.798 135.26 401.912C137.929 403.12 139.709 410.478 140.361 414.25C138.07 412.655 131.841 407.993 131.823 404.521H131.832Z" fill="black"/>
<path d="M373.996 235.576H225.124V355.285H373.996V235.576Z" fill="#849D37"/>
<path d="M373.996 330.311H307.314C310.574 328.663 317.271 324.891 317.984 321.375C318.187 320.37 317.914 319.462 317.174 318.661C316.416 317.85 315.535 317.524 314.566 317.691C311.094 318.308 307.314 325.552 305.737 328.909L300.952 235.558C300.944 235.321 300.759 235.118 300.494 235.144C300.247 235.153 300.062 235.365 300.08 235.603L304.732 326.442C303.596 322.653 301.648 317.55 299.12 316.616C298.239 316.29 297.366 316.457 296.52 317.109C295.578 317.832 295.119 318.757 295.155 319.85C295.278 323.587 301.384 328.416 303.992 330.319H225.124C224.877 330.319 224.683 330.513 224.683 330.76C224.683 331.007 224.877 331.201 225.124 331.201H304.724L304.547 331.624L304.706 331.553C304.019 333.809 301.913 339.74 298.098 341.829C296.556 342.675 294.882 342.798 293.119 342.19C292.89 342.111 292.635 342.234 292.564 342.463C292.485 342.692 292.608 342.948 292.837 343.027C294.846 343.714 296.758 343.573 298.529 342.604C301.983 340.709 304.071 336.127 305.085 333.272L306.213 355.321C306.221 355.559 306.415 355.735 306.653 355.735C306.653 355.735 306.671 355.735 306.68 355.735C306.926 355.726 307.111 355.514 307.094 355.276L306.036 334.549C307.058 337.369 308.918 341.106 312.028 343.195C313.57 344.234 315.27 344.754 317.103 344.754C317.773 344.754 318.46 344.684 319.165 344.543C319.403 344.499 319.561 344.261 319.509 344.023C319.465 343.785 319.218 343.626 318.989 343.679C316.601 344.155 314.425 343.75 312.521 342.463C308.222 339.573 306.398 333.069 305.948 331.201H374.005C374.252 331.201 374.446 331.007 374.446 330.76C374.446 330.513 374.252 330.319 374.005 330.319L373.996 330.311ZM314.715 318.564C314.83 318.546 314.944 318.537 315.05 318.537C315.588 318.537 316.072 318.775 316.522 319.269C317.068 319.85 317.262 320.485 317.121 321.207C316.442 324.565 309.059 328.478 306.265 329.852C307.975 326.107 311.737 319.101 314.715 318.572V318.564ZM296.036 319.815C296.009 319.004 296.344 318.352 297.058 317.797C297.463 317.488 297.86 317.33 298.256 317.33C298.441 317.33 298.626 317.365 298.82 317.436C301.49 318.423 303.772 325.834 304.715 329.729C302.327 328.002 296.159 323.217 296.045 319.815H296.036Z" fill="black"/>
<path d="M217.194 235.576H122.034V355.285H217.194V235.576Z" fill="#183A21"/>
<path d="M217.194 273.629H151.868V235.576H150.987V273.629H125.902C129.021 272.677 133.25 270.782 135.515 267.204C137.251 264.464 137.515 261.176 136.308 257.431L135.471 257.704C136.599 261.185 136.361 264.217 134.775 266.728C131.612 271.734 123.981 273.285 122.316 273.576C121.435 271.469 116.474 260.137 111.681 259.343C110.465 259.141 109.346 259.599 108.385 260.718C107.557 261.67 107.275 262.736 107.548 263.891C108.526 267.989 116.589 272.095 120.175 273.734C116.219 274.034 107.134 275.153 104.667 279.119C103.848 280.432 103.812 281.921 104.553 283.56C105.178 284.944 106.139 285.728 107.399 285.878C107.54 285.896 107.689 285.904 107.839 285.904C112.879 285.904 120.765 276.352 122.166 274.607L122.827 274.88L122.703 274.58C137.383 275.955 138.361 285.64 138.396 286.063L139.277 285.992C139.277 285.896 138.458 277.436 127.479 274.519H150.987V355.294H151.868V274.519H217.194V273.637V273.629ZM108.403 263.688C108.2 262.816 108.403 262.04 109.046 261.3C109.698 260.551 110.377 260.181 111.134 260.181C111.267 260.181 111.399 260.189 111.54 260.216C115.452 260.868 119.831 270.112 121.206 273.223C118.183 271.875 109.355 267.618 108.412 263.679L108.403 263.688ZM107.513 285.005C106.57 284.891 105.865 284.3 105.363 283.199C104.738 281.824 104.764 280.643 105.416 279.586C107.83 275.708 117.875 274.765 121.065 274.563C118.915 277.162 111.663 285.49 107.504 285.005H107.513Z" fill="black"/>
<path d="M337.307 145.583H162.635V227.645H337.307V145.583Z" fill="#38914F"/>
<path d="M337.307 188.605H254.544C261.223 185.847 266.166 182.137 267.118 179.035C267.453 177.942 267.312 176.955 266.695 176.092C265.717 174.743 264.563 174.135 263.25 174.276C259.047 174.735 254.483 183.221 252.632 187.046V145.574C252.632 145.327 252.438 145.133 252.192 145.133C251.945 145.133 251.751 145.327 251.751 145.574V186.596C250.033 182.243 245.962 173.157 241.433 171.906C240.094 171.536 238.817 171.853 237.636 172.849C236.711 173.624 236.367 174.779 236.64 176.18C237.363 179.934 242.799 185.592 249.822 188.605H162.636C162.389 188.605 162.195 188.799 162.195 189.046C162.195 189.293 162.389 189.487 162.636 189.487H251.311C249.275 192.139 241.592 201.533 234.666 201.93C234.42 201.948 234.235 202.15 234.252 202.397C234.27 202.644 234.481 202.82 234.719 202.811C241.821 202.406 249.319 193.496 251.751 190.368V227.645C251.751 227.892 251.945 228.085 252.192 228.085C252.438 228.085 252.632 227.892 252.632 227.645V193.761C254.016 198.317 257.584 204.935 266.73 207.711C266.774 207.72 266.818 207.729 266.862 207.729C267.047 207.729 267.224 207.605 267.285 207.42C267.356 207.191 267.224 206.944 266.994 206.874C254.835 203.19 252.967 192.412 252.694 189.681L252.905 189.751L252.817 189.495H337.316C337.563 189.495 337.757 189.302 337.757 189.055C337.757 188.808 337.563 188.614 337.316 188.614L337.307 188.605ZM263.347 175.158C263.435 175.149 263.523 175.14 263.611 175.14C264.483 175.14 265.259 175.625 265.972 176.612C266.431 177.246 266.527 177.951 266.272 178.779C265.347 181.767 259.972 185.6 253.029 188.262C254.483 185.16 259.294 175.598 263.338 175.158H263.347ZM237.504 176.012C237.292 174.928 237.53 174.082 238.2 173.518C239.16 172.708 240.138 172.461 241.196 172.752C245.848 174.047 250.271 185.116 251.46 188.323C244.068 185.6 238.226 179.766 237.504 176.012Z" fill="black"/>
<path d="M275.559 23.8643H216.771V137.651H275.559V23.8643Z" fill="#A7CEB1"/>
<path d="M275.559 48.1692H249.355V25.5651C250.985 28.2001 255.073 33.5052 262.342 35.2941C262.377 35.303 262.413 35.303 262.448 35.303C262.651 35.303 262.827 35.1708 262.88 34.9681C262.941 34.7301 262.792 34.4922 262.554 34.4393C254.148 32.3684 250.192 25.4065 249.452 23.9701C257.126 17.1668 260.228 7.46422 259.505 3.00509C259.223 1.26021 258.421 0.590461 257.804 0.334898C256.589 -0.167415 255.461 -0.0969148 254.439 0.537586C251.319 2.48515 249.892 9.57923 249.187 15.466C248.509 10.1168 246.764 6.54772 244.914 5.56072C243.962 5.04959 242.975 5.15534 242.068 5.86034C238.561 8.60104 245.187 19.1849 248.35 23.8202C243.557 28.9491 235.459 32.9236 235.371 32.9588C235.151 33.0646 235.063 33.329 235.169 33.5493C235.274 33.7696 235.539 33.8577 235.759 33.752C236.094 33.5933 243.548 29.9273 248.474 24.9571V48.1692H216.771C216.524 48.1692 216.331 48.3631 216.331 48.6099C216.331 48.8566 216.524 49.0505 216.771 49.0505H248.474V137.651C248.474 137.898 248.667 138.092 248.914 138.092C249.161 138.092 249.355 137.898 249.355 137.651V49.0505H275.559C275.806 49.0505 275.999 48.8566 275.999 48.6099C275.999 48.3631 275.806 48.1692 275.559 48.1692ZM254.906 1.28665C255.337 1.02227 255.787 0.881274 256.263 0.881274C256.65 0.881274 257.047 0.969399 257.478 1.14565C258.219 1.45409 258.518 2.39703 258.642 3.14609C259.302 7.19103 256.386 16.312 249.452 22.798C249.452 22.7187 249.46 22.6394 249.469 22.5601C250.253 10.2137 252.086 3.05797 254.914 1.28665H254.906ZM242.614 6.56535C242.984 6.27453 243.345 6.13353 243.716 6.13353C243.971 6.13353 244.235 6.20403 244.5 6.34503C246.879 7.61404 248.958 13.9502 248.553 22.5601C244.235 16.1005 240.306 8.37191 242.614 6.56535Z" fill="black"/>
</g>
<defs>
<clipPath id="clip0_357_1723">
<rect width="501" height="600" fill="white"/>
</clipPath>
</defs>
</svg>
