<svg width="192" height="288" viewBox="0 0 192 288" fill="none" xmlns="http://www.w3.org/2000/svg">
<path d="M192 0H144V48H192V0Z" fill="#FDF5D4"/>
<path d="M169.173 32.0016V30.5437C169.173 27.5804 171.577 25.1744 174.54 25.1744H175.995V22.8208H174.54C171.577 22.8208 169.173 20.4197 169.173 17.4515V15.9937H166.822V17.4515C166.822 20.4149 164.417 22.8208 161.455 22.8208H160V25.1744H161.455C164.417 25.1744 166.822 27.5756 166.822 30.5437V32.0016H169.173Z" fill="#A10D15"/>
<path d="M144 0H96V48H144V0Z" fill="#278D75"/>
<path d="M104.586 8.78586V8.05759C104.586 6.57773 105.788 5.37329 107.269 5.37329H107.995V4.19687H107.269C105.788 4.19687 104.586 2.9971 104.586 1.51256V0.784302H103.41V1.51256C103.41 2.99243 102.208 4.19687 100.727 4.19687H100.001V5.37329H100.727C102.208 5.37329 103.41 6.57306 103.41 8.05759V8.78586H104.586Z" fill="#FDF5D4"/>
<path d="M143.999 8.78586H143.412V8.05759C143.412 6.57306 142.209 5.37329 140.729 5.37329H139.998V4.19687H140.729C142.209 4.19687 143.412 2.9971 143.412 1.51256V0.784302H143.999V8.78586Z" fill="#FDF5D4"/>
<path d="M108.587 12.7866V12.0583C108.587 10.5785 109.79 9.37402 111.27 9.37402H111.996V8.1976H111.27C109.79 8.1976 108.587 6.99783 108.587 5.5133V4.78503H107.412V5.5133C107.412 6.99316 106.209 8.1976 104.729 8.1976H104.002V9.37402H104.729C106.209 9.37402 107.412 10.5738 107.412 12.0583V12.7866H108.587Z" fill="#FDF5D4"/>
<path d="M132.587 12.7866V12.0583C132.587 10.5785 133.79 9.37402 135.271 9.37402H135.997V8.1976H135.271C133.79 8.1976 132.587 6.99783 132.587 5.5133V4.78503H131.412V5.5133C131.412 6.99316 130.21 8.1976 128.729 8.1976H128.003V9.37402H128.729C130.21 9.37402 131.412 10.5738 131.412 12.0583V12.7866H132.587Z" fill="#FDF5D4"/>
<path d="M116.586 21.3951V20.6668C116.586 19.187 117.789 17.9825 119.269 17.9825H119.995V16.8061H119.269C117.789 16.8061 116.586 15.6064 116.586 14.1218V13.3936H115.411V14.1218C115.411 15.6017 114.208 16.8061 112.728 16.8061H112.001V17.9825H112.728C114.208 17.9825 115.411 19.1823 115.411 20.6668V21.3951H116.586Z" fill="#FDF5D4"/>
<path d="M100.589 29.9989V29.2706C100.589 27.7907 101.792 26.5863 103.272 26.5863H103.998V25.4099H103.272C101.792 25.4099 100.589 24.2101 100.589 22.7256V21.9973H99.414V22.7256C99.414 24.2054 98.2112 25.4099 96.7309 25.4099H96.0046V26.5863H96.7309C98.2112 26.5863 99.414 27.7861 99.414 29.2706V29.9989H100.589Z" fill="#FDF5D4"/>
<path d="M120.587 34.6065V33.8783C120.587 32.3984 121.79 31.194 123.271 31.194H123.997V30.0175H123.271C121.79 30.0175 120.587 28.8178 120.587 27.3332V26.605H119.412V27.3332C119.412 28.8131 118.21 30.0175 116.729 30.0175H116.003V31.194H116.729C118.21 31.194 119.412 32.3937 119.412 33.8783V34.6065H120.587Z" fill="#FDF5D4"/>
<path d="M136.589 34.6065V33.8783C136.589 32.3984 137.792 31.194 139.272 31.194H139.998V30.0175H139.272C137.792 30.0175 136.589 28.8178 136.589 27.3332V26.605H135.414V27.3332C135.414 28.8131 134.211 30.0175 132.731 30.0175H132.004V31.194H132.731C134.211 31.194 135.414 32.3937 135.414 33.8783V34.6065H136.589Z" fill="#FDF5D4"/>
<path d="M132.587 38.6073V37.879C132.587 36.3991 133.79 35.1947 135.271 35.1947H135.997V34.0183H135.271C133.79 34.0183 132.587 32.8185 132.587 31.334V30.6057H131.412V31.334C131.412 32.8138 130.21 34.0183 128.729 34.0183H128.003V35.1947H128.729C130.21 35.1947 131.412 36.3945 131.412 37.879V38.6073H132.587Z" fill="#FDF5D4"/>
<path d="M104.586 43.2149V42.4867C104.586 41.0068 105.788 39.8024 107.269 39.8024H107.995V38.6259H107.269C105.788 38.6259 104.586 37.4262 104.586 35.9416V35.2134H103.41V35.9416C103.41 37.4215 102.208 38.6259 100.727 38.6259H100.001V39.8024H100.727C102.208 39.8024 103.41 41.0021 103.41 42.4867V43.2149H104.586Z" fill="#FDF5D4"/>
<path d="M140.585 47.2158V46.4875C140.585 45.0077 141.788 43.8032 143.268 43.8032H143.994V42.6268H143.268C141.788 42.6268 140.585 41.427 140.585 39.9425V39.2142H139.41V39.9425C139.41 41.4224 138.207 42.6268 136.727 42.6268H136.001V43.8032H136.727C138.207 43.8032 139.41 45.003 139.41 46.4875V47.2158H140.585Z" fill="#FDF5D4"/>
<path d="M144 48H96V96H144V48Z" fill="#FDF5D4"/>
<path d="M121.175 80.0015V78.545C121.175 75.5806 123.576 73.1764 126.542 73.1764H127.999V70.8235H126.542C123.576 70.8235 121.175 68.4193 121.175 65.4549V63.9984H118.825V65.4549C118.825 68.4193 116.424 70.8235 113.459 70.8235H112.002V73.1764H113.459C116.424 73.1764 118.825 75.5806 118.825 78.545V80.0015H121.175Z" fill="#A10D15"/>
<path d="M48 144H0V192H48V144Z" fill="#278D75"/>
<path d="M25.1764 176.002V174.545C25.1764 171.581 27.5806 169.176 30.545 169.176H32.0015V166.824H30.545C27.5806 166.824 25.1764 164.419 25.1764 161.455V159.998H22.8235V161.455C22.8235 164.419 20.4193 166.824 17.4549 166.824H15.9984V169.176H17.4549C20.4193 169.176 22.8235 171.581 22.8235 174.545V176.002H25.1764Z" fill="#FDF5D4"/>
<path d="M96.0004 144H144V96H96.0004V144Z" fill="#278D75"/>
<path d="M134.724 96H132.39V144H134.724V96Z" fill="#FDF5D4"/>
<path d="M144 106.112H96V108.446H144V106.112Z" fill="#FDF5D4"/>
<path d="M138.379 100.79L137.348 101.822C135.252 103.918 131.853 103.918 129.757 101.822L128.725 100.79L127.063 102.452L128.095 103.483C130.191 105.58 130.191 108.978 128.095 111.074L127.063 112.106L128.725 113.768L129.757 112.736C131.853 110.64 135.252 110.64 137.348 112.736L138.379 113.768L140.041 112.106L139.01 111.074C136.914 108.978 136.914 105.58 139.01 103.483L140.041 102.452L138.379 100.79Z" fill="#FDF5D4"/>
<path d="M0 240.005L0 288H48V240.005H0Z" fill="#A10D15"/>
<path d="M48 276.386H0V278.72H48V276.386Z" fill="#FDF5D4"/>
<path d="M37.8931 240H35.5589V287.995H37.8931V240Z" fill="#FDF5D4"/>
<path d="M43.2099 282.38L42.1782 281.348C40.0821 279.252 40.0821 275.854 42.1782 273.758L43.2099 272.727L41.548 271.065L40.5163 272.096C38.4202 274.192 35.0216 274.192 32.9255 272.096L31.8938 271.065L30.2319 272.727L31.2636 273.758C33.3597 275.854 33.3597 279.252 31.2636 281.348L30.2319 282.38L31.8938 284.042L32.9255 283.01C35.0216 280.914 38.4202 280.914 40.5163 283.01L41.548 284.042L43.2099 282.38Z" fill="#FDF5D4"/>
<path d="M96 96H48V144H96V96Z" fill="#074739"/>
<path d="M83.4377 122.502V120.061C83.4377 115.094 79.4089 111.065 74.4418 111.065H72.0002H69.5587C64.5869 111.065 60.5581 115.094 60.5581 120.061V122.507H83.4377V122.502Z" fill="#FF866A"/>
<path d="M60.5581 122.049V124.491C60.5581 129.458 64.5869 133.487 69.554 133.487H71.9956H74.4371C79.4089 133.487 83.4377 129.458 83.4377 124.491V122.045H60.5581V122.049Z" fill="#FF866A"/>
<path d="M72.3452 111.06V109.403C72.3452 106.028 69.6096 103.292 66.2343 103.292H64.5771V104.949C64.5771 108.324 67.3127 111.06 70.688 111.06H72.3452Z" fill="#278D75"/>
<path d="M192 144H48V288H192V144Z" fill="#A10D15"/>
<path d="M181.276 287.991V274.907C181.276 248.291 159.698 226.712 133.081 226.712H119.997L106.927 226.717C80.2972 226.717 58.7189 248.295 58.7189 274.902V287.995L181.276 287.986V287.991Z" fill="#FDF5D4"/>
<path d="M104.05 233.536V231.116C104.05 226.19 100.057 222.197 95.1312 222.197H92.7103H90.2894C85.3636 222.197 81.3707 226.19 81.3707 231.111V233.532H104.045L104.05 233.536Z" fill="#FDF5D4"/>
<path d="M158.626 233.536V231.116C158.626 226.19 154.633 222.197 149.707 222.197H147.286H144.865C139.939 222.197 135.946 226.19 135.946 231.111V233.532H158.621L158.626 233.536Z" fill="#FDF5D4"/>
<path d="M129.35 276.32H127.648C124.182 276.32 121.374 273.512 121.374 270.046V268.344H118.626V270.046C118.626 273.512 115.818 276.32 112.352 276.32H110.65" stroke="#278D75" stroke-width="4.29639" stroke-miterlimit="10"/>
<path d="M110.323 258.949V261.015C110.323 265.218 113.728 268.623 117.931 268.623H119.998H122.059C126.262 268.623 129.667 265.218 129.667 261.015V258.949H110.319H110.323Z" fill="#FF866A"/>
<path d="M75.0405 194.359V192.171C75.0405 187.726 78.6463 184.12 83.0916 184.12H85.2793V180.594H83.0916C78.6463 180.594 75.0405 176.988 75.0405 172.543V170.355H71.5141V172.543C71.5141 176.988 67.9084 180.594 63.4631 180.594H61.2754V184.12H63.4631C67.9084 184.12 71.5141 187.726 71.5141 192.171V194.359H75.0405Z" fill="#FDF5D4"/>
<path d="M171.042 220.177V217.989C171.042 213.544 174.648 209.938 179.093 209.938H181.281V206.412H179.093C174.648 206.412 171.042 202.806 171.042 198.361V196.173H167.516V198.361C167.516 202.806 163.91 206.412 159.465 206.412H157.277V209.938H159.465C163.91 209.938 167.516 213.544 167.516 217.989V220.177H171.042Z" fill="#FDF5D4"/>
<mask id="mask0_106_517" style="mask-type:luminance" maskUnits="userSpaceOnUse" x="144" y="48" width="48" height="48">
<path d="M192 48H144V96H192V48Z" fill="white"/>
</mask>
<g mask="url(#mask0_106_517)">
<path d="M192 48H144V96H192V48Z" fill="#074739"/>
<path d="M179.073 65.4921C179.073 66.0477 178.998 66.5845 178.854 67.098C178.298 69.1008 176.72 70.6787 174.718 71.2342C174.209 71.3789 173.667 71.4536 173.112 71.4536C172.556 71.4536 171.968 71.3696 171.436 71.2109C169.648 70.6927 168.21 69.3529 167.547 67.6349C167.29 66.9673 167.146 66.2484 167.146 65.4921C167.146 65.2447 167.136 65.0066 167.108 64.7732C166.982 63.4147 166.473 62.2756 165.628 61.4353C165.18 60.9918 164.639 60.637 164.027 60.385C163.289 60.0768 162.454 59.9181 161.557 59.9181H161.487C161.385 59.9181 161.282 59.9181 161.184 59.9275C159.545 60.0115 158.07 60.6417 157.104 61.6828C156.245 62.6071 155.853 63.7648 155.932 65.1233C155.932 65.142 155.932 65.1607 155.932 65.1747C155.932 65.2774 155.937 65.3801 155.937 65.4875V97.0268C155.937 97.1809 155.932 97.3303 155.918 97.475C155.699 100.411 153.36 102.75 150.423 102.97C150.274 102.979 150.125 102.988 149.975 102.988C148.066 102.988 146.367 102.092 145.274 100.692C144.77 100.047 144.392 99.291 144.191 98.4694C144.074 98.0072 144.014 97.5217 144.014 97.0268V65.6462C143.86 62.5371 144.532 59.5493 145.947 56.9304C146.6 55.7166 147.417 54.5822 148.379 53.5505C149.602 52.2387 151.035 51.1323 152.618 50.2593C155.237 48.8168 158.252 48.0185 161.375 47.9905C161.698 47.9905 162.02 47.9905 162.337 48.0045C163.341 48.0465 164.326 48.1632 165.283 48.3546C167.216 48.7421 169.041 49.433 170.698 50.404C171.384 50.8055 172.033 51.2537 172.654 51.7438C173.126 52.122 173.583 52.5234 174.017 52.9529C174.848 53.7746 175.581 54.6802 176.216 55.6466C176.66 56.3235 177.052 57.0284 177.397 57.766C178.247 59.582 178.779 61.566 178.98 63.6481C179.036 64.2503 179.064 64.8619 179.064 65.4781L179.073 65.4921Z" fill="#A10D15"/>
<path d="M152.627 50.2688L145.956 56.9399C146.61 55.7261 147.427 54.5917 148.388 53.56C149.611 52.2482 151.045 51.1418 152.627 50.2688Z" fill="#FDF5D4"/>
<path d="M155.946 65.4922V68.4753L144.023 80.3983V77.0977L155.942 65.1794C155.942 65.2821 155.946 65.3849 155.946 65.4922Z" fill="#FDF5D4"/>
<path d="M172.669 51.7533L164.037 60.3851C163.299 60.077 162.464 59.9182 161.567 59.9182H161.497C161.395 59.9182 161.292 59.9183 161.194 59.9276L170.713 50.4088C171.399 50.8103 172.048 51.2585 172.669 51.7486V51.7533Z" fill="#FDF5D4"/>
<path d="M155.946 75.9401V79.2406L144.023 91.1636V87.863L155.946 75.9401Z" fill="#FDF5D4"/>
<path d="M177.406 57.7802L167.546 67.6397C167.29 66.9722 167.145 66.2532 167.145 65.497C167.145 65.2495 167.136 65.0114 167.108 64.778L176.22 55.6654C176.664 56.3423 177.056 57.0472 177.401 57.7848L177.406 57.7802Z" fill="#FDF5D4"/>
<path d="M155.946 86.7006V90.0011L145.283 100.701C144.779 100.057 144.401 99.3004 144.2 98.4788L155.946 86.7006Z" fill="#FDF5D4"/>
<path d="M179.073 65.4923C179.073 66.0478 178.998 66.5847 178.853 67.0982L174.717 71.2343C174.208 71.379 173.667 71.4537 173.111 71.4537C172.556 71.4537 171.967 71.3697 171.435 71.211L178.989 63.6576C179.045 64.2598 179.073 64.8714 179.073 65.4876V65.4923Z" fill="#FDF5D4"/>
<path d="M165.292 48.3641L144.023 69.6331V66.3326L162.346 48.0093C163.35 48.0513 164.335 48.168 165.292 48.3594V48.3641Z" fill="#FDF5D4"/>
</g>
<path d="M48.0002 192H0.000244141V240H48.0002V192Z" fill="#FDF5D4"/>
<path d="M6.59663 192L0.000244141 198.596V195.3L3.2961 192H6.59663Z" fill="#074739"/>
<path d="M17.3618 192L0.000244141 209.36V206.06L14.0613 192H17.3618Z" fill="#074739"/>
<path d="M38.8876 192L0.000244141 230.888V227.583L35.5918 192H38.8876Z" fill="#074739"/>
<path d="M48.0002 192V193.652L1.65284 240H0.000244141V238.348L46.357 192H48.0002Z" fill="#074739"/>
<path d="M47.9998 201.116V204.417L12.413 240H9.11249L47.9998 201.116Z" fill="#074739"/>
<path d="M48.0003 211.881V215.181L23.1786 240H19.8781L48.0003 211.881Z" fill="#074739"/>
<path d="M48 222.645V225.945L33.9436 240H30.6431L48 222.645Z" fill="#074739"/>
<path d="M48.0002 233.409V236.704L44.7044 240H41.4085L48.0002 233.409Z" fill="#074739"/>
<path d="M28.1271 192L0.000244141 220.124V216.824L24.8265 192H28.1271Z" fill="#074739"/>
<path d="M192 96H144V144H192V96Z" fill="#FDF5D4"/>
<path d="M168 139.7C176.938 139.7 184.185 132.454 184.185 123.515C184.185 114.576 176.938 107.33 168 107.33C159.061 107.33 151.814 114.576 151.814 123.515C151.814 132.454 159.061 139.7 168 139.7Z" fill="#A10D15"/>
<path d="M172.183 108.012V107.12C172.183 105.304 170.707 103.829 168.891 103.829H168H167.108C165.292 103.829 163.817 105.304 163.817 107.12V108.012H172.183Z" fill="#FF866A"/>
<path d="M176.002 122.339H174.545C171.581 122.339 169.177 119.935 169.177 116.97V115.514H166.824V116.97C166.824 119.935 164.42 122.339 161.455 122.339H159.999V124.692H161.455C164.42 124.692 166.824 127.096 166.824 130.06V131.517H169.177V130.06C169.177 127.096 171.581 124.692 174.545 124.692H176.002V122.339Z" fill="#FDF5D4"/>
<path d="M192 96H144V99.5293H192V96Z" fill="#074739"/>
<path d="M169.166 99.5247H166.832V107.325H169.166V99.5247Z" fill="#FF866A"/>
</svg>
