<svg width="513" height="512" viewBox="0 0 513 512" fill="none" xmlns="http://www.w3.org/2000/svg">
<g clip-path="url(#clip0_357_1597)">
<path d="M2.10268 1.71165H84.4856V85.0207H2.10268V1.71165Z" fill="#FDF5D4"/>
<path d="M41.2807 57.2538V54.7235C41.2807 49.5802 37.1545 45.4044 32.0692 45.4044H29.5719V41.3196H32.0692C37.1545 41.3196 41.2807 37.1521 41.2807 32.0006V29.4703H45.3159V32.0006C45.3159 37.1438 49.4421 41.3196 54.5274 41.3196H57.0247V45.4044H54.5274C49.4421 45.4044 45.3159 49.572 45.3159 54.7235V57.2538H41.2807Z" fill="#A10D15"/>
<path d="M85.5192 0H171.317V85.0207H85.5192V0Z" fill="#278D75"/>
<path d="M155.97 15.562V14.2721C155.97 11.6509 153.82 9.51749 151.174 9.51749H149.876V7.43373H151.174C153.82 7.43373 155.97 5.30863 155.97 2.67912V1.38918H158.07V2.67912C158.07 5.30036 160.22 7.43373 162.866 7.43373H164.165V9.51749H162.866C160.22 9.51749 158.07 11.6426 158.07 14.2721V15.562H155.97Z" fill="#FDF5D4"/>
<path d="M85.5191 15.562H86.5692V14.2721C86.5692 11.6426 88.7191 9.51749 91.3652 9.51749H92.6716V7.43373H91.3652C88.7191 7.43373 86.5692 5.30863 86.5692 2.67912V1.38918H85.5191V15.562Z" fill="#FDF5D4"/>
<path d="M148.817 22.6485V21.3585C148.817 18.7373 146.668 16.6039 144.022 16.6039H142.723V14.5202H144.022C146.668 14.5202 148.817 12.3951 148.817 9.76556V8.47562H150.918V9.76556C150.918 12.3868 153.068 14.5202 155.714 14.5202H157.012V16.6039H155.714C153.068 16.6039 150.918 18.729 150.918 21.3585V22.6485H148.817Z" fill="#FDF5D4"/>
<path d="M105.919 22.6485V21.3585C105.919 18.7373 103.769 16.6039 101.123 16.6039H99.8244V14.5202H101.123C103.769 14.5202 105.919 12.3951 105.919 9.76556V8.47562H108.019V9.76556C108.019 12.3868 110.169 14.5202 112.815 14.5202H114.113V16.6039H112.815C110.169 16.6039 108.019 18.729 108.019 21.3585V22.6485H105.919Z" fill="#FDF5D4"/>
<path d="M134.521 37.8963V36.6064C134.521 33.9851 132.371 31.8517 129.725 31.8517H128.426V29.768H129.725C132.371 29.768 134.521 27.6429 134.521 25.0134V23.7234H136.621V25.0134C136.621 27.6346 138.771 29.768 141.417 29.768H142.715V31.8517H141.417C138.771 31.8517 136.621 33.9769 136.621 36.6064V37.8963H134.521Z" fill="#FDF5D4"/>
<path d="M163.114 53.1359V51.8459C163.114 49.2247 160.964 47.0913 158.318 47.0913H157.02V45.0075H158.318C160.964 45.0075 163.114 42.8824 163.114 40.2529V38.963H165.215V40.2529C165.215 42.8742 167.365 45.0075 170.011 45.0075H171.309V47.0913H170.011C167.365 47.0913 165.215 49.2164 165.215 51.8459V53.1359H163.114Z" fill="#FDF5D4"/>
<path d="M127.368 61.2972V60.0073C127.368 57.3861 125.218 55.2527 122.572 55.2527H121.274V53.1689H122.572C125.218 53.1689 127.368 51.0438 127.368 48.4143V47.1244H129.468V48.4143C129.468 51.0356 131.618 53.1689 134.264 53.1689H135.562V55.2527H134.264C131.618 55.2527 129.468 57.3778 129.468 60.0073V61.2972H127.368Z" fill="#FDF5D4"/>
<path d="M98.766 61.2972V60.0073C98.766 57.3861 96.6161 55.2527 93.97 55.2527H92.6718V53.1689H93.97C96.6161 53.1689 98.766 51.0438 98.766 48.4143V47.1244H100.866V48.4143C100.866 51.0356 103.016 53.1689 105.662 53.1689H106.96V55.2527H105.662C103.016 55.2527 100.866 57.3778 100.866 60.0073V61.2972H98.766Z" fill="#FDF5D4"/>
<path d="M105.919 68.3837V67.0937C105.919 64.4725 103.769 62.3391 101.123 62.3391H99.8244V60.2554H101.123C103.769 60.2554 105.919 58.1303 105.919 55.5008V54.2108H108.019V55.5008C108.019 58.122 110.169 60.2554 112.815 60.2554H114.113V62.3391H112.815C110.169 62.3391 108.019 64.4642 108.019 67.0937V68.3837H105.919Z" fill="#FDF5D4"/>
<path d="M155.97 76.5451V75.2551C155.97 72.6339 153.82 70.5005 151.174 70.5005H149.876V68.4167H151.174C153.82 68.4167 155.97 66.2916 155.97 63.6621V62.3722H158.07V63.6621C158.07 66.2834 160.22 68.4167 162.866 68.4167H164.165V70.5005H162.866C160.22 70.5005 158.07 72.6256 158.07 75.2551V76.5451H155.97Z" fill="#FDF5D4"/>
<path d="M91.6217 83.6315V82.3416C91.6217 79.7203 89.4718 77.5869 86.8257 77.5869H85.5275V75.5032H86.8257C89.4718 75.5032 91.6217 73.3781 91.6217 70.7486V69.4586H93.722V70.7486C93.722 73.3698 95.8719 75.5032 98.5179 75.5032H99.8162V77.5869H98.5179C95.8719 77.5869 93.722 79.7121 93.722 82.3416V83.6315H91.6217Z" fill="#FDF5D4"/>
<path d="M85.5192 84.7478H171.317V169.768H85.5192V84.7478Z" fill="#FDF5D4"/>
<path d="M126.318 141.431V138.851C126.318 133.6 122.026 129.342 116.726 129.342H114.121V125.174H116.726C122.026 125.174 126.318 120.916 126.318 115.665V113.085H130.518V115.665C130.518 120.916 134.81 125.174 140.11 125.174H142.715V129.342H140.11C134.81 129.342 130.518 133.6 130.518 138.851V141.431H126.318Z" fill="#A10D15"/>
<path d="M255.999 255.219H341.019V340.24H255.999V255.219Z" fill="#278D75"/>
<path d="M296.425 311.902V309.322C296.425 304.072 292.167 299.813 286.916 299.813H284.336V295.646H286.916C292.167 295.646 296.425 291.387 296.425 286.136V283.557H300.593V286.136C300.593 291.387 304.851 295.646 310.102 295.646H312.682V299.813H310.102C304.851 299.813 300.593 304.072 300.593 309.322V311.902H296.425Z" fill="#FDF5D4"/>
<path d="M170.54 254.83H85.519L85.519 169.81H170.54V254.83Z" fill="#278D75"/>
<path d="M101.95 169.81H106.084V254.83H101.95V169.81Z" fill="#FDF5D4"/>
<path d="M85.5191 187.72H170.54V191.855H85.5191V187.72Z" fill="#FDF5D4"/>
<path d="M95.4748 178.294L97.3022 180.121C101.015 183.834 107.035 183.834 110.747 180.121L112.575 178.294L115.519 181.237L113.691 183.065C109.978 186.778 109.978 192.797 113.691 196.51L115.519 198.337L112.575 201.281L110.747 199.454C107.035 195.741 101.015 195.741 97.3022 199.454L95.4748 201.281L92.5311 198.337L94.3585 196.51C98.0712 192.797 98.0712 186.778 94.3585 183.065L92.5311 181.237L95.4748 178.294Z" fill="#FDF5D4"/>
<path d="M340.945 424.673V509.694H255.924V424.673H340.945Z" fill="#A10D15"/>
<path d="M255.924 489.121H340.945V493.256H255.924V489.121Z" fill="#FDF5D4"/>
<path d="M273.826 424.665H277.961V509.686H273.826V424.665Z" fill="#FDF5D4"/>
<path d="M264.408 499.738L266.236 497.911C269.948 494.198 269.948 488.178 266.236 484.466L264.408 482.638L267.352 479.695L269.179 481.522C272.892 485.235 278.912 485.235 282.625 481.522L284.452 479.695L287.396 482.638L285.568 484.466C281.856 488.178 281.856 494.198 285.568 497.911L287.396 499.738L284.452 502.682L282.625 500.855C278.912 497.142 272.892 497.142 269.179 500.855L267.352 502.682L264.408 499.738Z" fill="#FDF5D4"/>
<path d="M340.945 339.959H510.986V510H340.945V339.959Z" fill="#278D75"/>
<path d="M340.97 424.963V412.469H356.449C387.945 412.469 413.48 386.934 413.48 355.438V339.959H438.468V355.438C438.468 386.934 464.003 412.469 495.499 412.469H510.986V424.963H340.97Z" fill="#074739"/>
<path d="M340.97 491.668V479.174H356.449C387.945 479.174 413.48 453.639 413.48 422.143V406.664H438.468V422.143C438.468 453.639 464.003 479.174 495.499 479.174H510.986V491.668H340.97Z" fill="#074739"/>
<path d="M409.436 510H442.52C439.907 503.468 438.468 496.323 438.468 488.856V473.377H413.48V488.856C413.48 496.323 412.041 503.468 409.428 510H409.436Z" fill="#074739"/>
<path d="M171.028 169.785H256.048V254.806H171.028V169.785Z" fill="#074739"/>
<path d="M193.279 216.727V212.403C193.279 203.605 200.415 196.469 209.213 196.469H213.538H217.863C226.669 196.469 233.805 203.605 233.805 212.403V216.736H193.279V216.727Z" fill="#FF866A"/>
<path d="M233.805 215.925V220.25C233.805 229.048 226.669 236.184 217.871 236.184H213.546H209.222C200.415 236.184 193.279 229.048 193.279 220.25V215.917H233.805V215.925Z" fill="#FF866A"/>
<path d="M212.926 196.46V193.525C212.926 187.547 217.771 182.701 223.75 182.701H226.685V185.636C226.685 191.615 221.84 196.46 215.861 196.46H212.926Z" fill="#278D75"/>
<path d="M0.779556 254.541H256.048V509.81H0.779556V254.541Z" fill="#A10D15"/>
<path d="M19.7897 509.793V486.599C19.7897 439.417 58.0416 401.165 105.224 401.165H128.418L151.587 401.173C198.795 401.173 237.046 439.425 237.046 486.591V509.802L19.7897 509.785V509.793Z" fill="#FDF5D4"/>
<path d="M156.689 413.262V408.971C156.689 400.239 163.767 393.161 172.499 393.161H176.791H181.082C189.814 393.161 196.893 400.239 196.893 408.962V413.254H156.698L156.689 413.262Z" fill="#FDF5D4"/>
<path d="M59.9434 413.262V408.971C59.9434 400.239 67.0216 393.161 75.7535 393.161H80.0451H84.3366C93.0686 393.161 100.147 400.239 100.147 408.962V413.254H59.9517L59.9434 413.262Z" fill="#FDF5D4"/>
<path d="M111.839 489.105H114.857C121.001 489.105 125.979 484.127 125.979 477.983V474.965H130.849V477.983C130.849 484.127 135.827 489.105 141.971 489.105H144.989" stroke="#278D75" stroke-width="7.24" stroke-miterlimit="10"/>
<path d="M145.568 458.311V461.974C145.568 469.425 139.531 475.461 132.081 475.461H128.418H124.763C117.313 475.461 111.277 469.425 111.277 461.974V458.311H145.576H145.568Z" fill="#FF866A"/>
<path d="M208.114 343.812V339.934C208.114 332.054 201.722 325.662 193.842 325.662H189.963V319.41H193.842C201.722 319.41 208.114 313.019 208.114 305.138V301.26H214.365V305.138C214.365 313.019 220.757 319.41 228.637 319.41H232.515V325.662H228.637C220.757 325.662 214.365 332.054 214.365 339.934V343.812H208.114Z" fill="#FDF5D4"/>
<path d="M37.9318 389.58V385.702C37.9318 377.822 31.54 371.43 23.6597 371.43H19.7816V365.179H23.6597C31.54 365.179 37.9318 358.787 37.9318 350.907V347.029H44.183V350.907C44.183 358.787 50.5749 365.179 58.4551 365.179H62.3333V371.43H58.4551C50.5749 371.43 44.183 377.822 44.183 385.702V389.58H37.9318Z" fill="#FDF5D4"/>
<mask id="mask0_357_1597" style="mask-type:luminance" maskUnits="userSpaceOnUse" x="0" y="84" width="86" height="86">
<path d="M0.787918 84.8884H85.8086V169.909H0.787918V84.8884Z" fill="white"/>
</mask>
<g mask="url(#mask0_357_1597)">
<path d="M0.787918 84.8884H85.8086V169.909H0.787918V84.8884Z" fill="#074739"/>
<path d="M23.6844 115.872C23.6844 116.856 23.8167 117.807 24.073 118.716C25.057 122.264 27.8519 125.059 31.3993 126.043C32.3006 126.299 33.2598 126.431 34.2438 126.431C35.2278 126.431 36.2696 126.282 37.2123 126.001C40.3792 125.083 42.9261 122.71 44.1003 119.667C44.555 118.485 44.8114 117.211 44.8114 115.872C44.8114 115.434 44.8279 115.012 44.8775 114.598C45.1008 112.192 46.0021 110.175 47.4988 108.686C48.2926 107.901 49.2518 107.272 50.335 106.826C51.6415 106.28 53.1216 105.999 54.7093 105.999H54.8333C55.0152 105.999 55.1971 105.999 55.3708 106.015C58.2731 106.164 60.8861 107.281 62.5978 109.124C64.1192 110.762 64.8138 112.812 64.6733 115.219C64.6733 115.252 64.6733 115.285 64.6733 115.31C64.6733 115.492 64.665 115.673 64.665 115.864V171.728C64.665 172.001 64.6733 172.266 64.6981 172.522C65.0867 177.723 69.2294 181.866 74.4305 182.254C74.6951 182.271 74.9598 182.288 75.2244 182.288C78.6063 182.288 81.6162 180.7 83.5511 178.219C84.4442 177.078 85.114 175.739 85.4695 174.283C85.6762 173.465 85.7837 172.605 85.7837 171.728V116.145C86.0566 110.638 84.8659 105.346 82.3604 100.707C81.2028 98.5568 79.7557 96.5475 78.0523 94.7201C75.8859 92.3965 73.3473 90.4368 70.5441 88.8905C65.9053 86.3354 60.5636 84.9214 55.0318 84.8718C54.4612 84.8718 53.8907 84.8718 53.3284 84.8966C51.5506 84.9711 49.8058 85.1778 48.1107 85.5168C44.6873 86.2031 41.4542 87.4269 38.5188 89.1468C37.3032 89.858 36.1539 90.6518 35.0541 91.52C34.2189 92.1898 33.4086 92.9009 32.6396 93.6616C31.1677 95.117 29.8695 96.7211 28.7449 98.4328C27.9594 99.6318 27.2648 100.88 26.6529 102.187C25.148 105.403 24.2053 108.918 23.8498 112.606C23.7505 113.672 23.7009 114.756 23.7009 115.847L23.6844 115.872Z" fill="#A10D15"/>
<path d="M70.5275 88.907L82.3438 100.723C81.1861 98.5734 79.739 96.564 78.0356 94.7366C75.8692 92.413 73.3307 90.4533 70.5275 88.907Z" fill="#FDF5D4"/>
<path d="M64.6483 115.872V121.156L85.7671 142.274V136.428L64.6566 115.318C64.6566 115.5 64.6483 115.682 64.6483 115.872Z" fill="#FDF5D4"/>
<path d="M35.0291 91.5365L50.3183 106.826C51.6248 106.28 53.1049 105.999 54.6925 105.999H54.8166C54.9985 105.999 55.1804 105.999 55.354 106.015L38.4938 89.1551C37.2783 89.8662 36.1289 90.66 35.0291 91.5283V91.5365Z" fill="#FDF5D4"/>
<path d="M64.6483 134.378V140.224L85.7671 161.342V155.496L64.6483 134.378Z" fill="#FDF5D4"/>
<path d="M26.6363 102.212L44.1002 119.676C44.555 118.493 44.8113 117.22 44.8113 115.88C44.8113 115.442 44.8278 115.02 44.8774 114.607L28.7366 98.4659C27.951 99.6649 27.2565 100.913 26.6446 102.22L26.6363 102.212Z" fill="#FDF5D4"/>
<path d="M64.6483 153.437V159.284L83.5345 178.236C84.4275 177.095 85.0973 175.755 85.4529 174.3L64.6483 153.437Z" fill="#FDF5D4"/>
<path d="M23.6843 115.872C23.6843 116.856 23.8166 117.807 24.0729 118.716L31.3992 126.043C32.3005 126.299 33.2597 126.431 34.2437 126.431C35.2277 126.431 36.2695 126.282 37.2122 126.001L23.8331 112.622C23.7339 113.689 23.6843 114.772 23.6843 115.864V115.872Z" fill="#FDF5D4"/>
<path d="M48.0938 85.5334L85.7668 123.206V117.36L53.3115 84.905C51.5337 84.9794 49.7889 85.1861 48.0938 85.5251V85.5334Z" fill="#FDF5D4"/>
</g>
<path d="M255.924 339.95H340.945V424.979H255.924V339.95Z" fill="#FDF5D4"/>
<path d="M329.261 339.95L340.945 351.634V345.796L335.107 339.95H329.261Z" fill="#074739"/>
<path d="M310.193 339.95L340.945 370.702V364.856L316.039 339.95H310.193Z" fill="#074739"/>
<path d="M272.065 339.95L340.945 408.838V402.984L277.903 339.95H272.065Z" fill="#074739"/>
<path d="M255.924 339.95V342.878L338.018 424.979H340.945V422.052L258.835 339.95H255.924Z" fill="#074739"/>
<path d="M255.924 356.1V361.946L318.958 424.979H324.804L255.924 356.1Z" fill="#074739"/>
<path d="M255.924 375.168V381.014L299.89 424.979H305.736L255.924 375.168Z" fill="#074739"/>
<path d="M255.924 394.236V400.082L280.822 424.979H286.668L255.924 394.236Z" fill="#074739"/>
<path d="M255.924 413.304V419.141L261.762 424.979H267.6L255.924 413.304Z" fill="#074739"/>
<path d="M291.125 339.95L340.945 389.77V383.924L296.971 339.95H291.125Z" fill="#074739"/>
<path d="M0.787918 169.81H85.8086V254.83H0.787918V169.81Z" fill="#FDF5D4"/>
<path d="M43.2983 247.215C27.4653 247.215 14.6301 234.38 14.6301 218.547C14.6301 202.714 27.4653 189.878 43.2983 189.878C59.1314 189.878 71.9666 202.714 71.9666 218.547C71.9666 234.38 59.1314 247.215 43.2983 247.215Z" fill="#A10D15"/>
<path d="M35.8894 191.086V189.506C35.8894 186.29 38.5024 183.677 41.719 183.677H43.2984H44.8777C48.0943 183.677 50.7073 186.29 50.7073 189.506V191.086H35.8894Z" fill="#FF866A"/>
<path d="M29.1255 216.463H31.7054C36.9561 216.463 41.2146 212.204 41.2146 206.954V204.374H45.3821V206.954C45.3821 212.204 49.6406 216.463 54.8913 216.463H57.4712V220.63H54.8913C49.6406 220.63 45.3821 224.889 45.3821 230.14V232.719H41.2146V230.14C41.2146 224.889 36.9561 220.63 31.7054 220.63H29.1255V216.463Z" fill="#FDF5D4"/>
<path d="M0.787918 169.81H85.8086V176.061H0.787918V169.81Z" fill="#074739"/>
<path d="M41.231 176.053H45.3655V189.87H41.231V176.053Z" fill="#FF866A"/>
</g>
<defs>
<clipPath id="clip0_357_1597">
<rect width="510.198" height="510" fill="white" transform="matrix(-1 0 0 1 510.986 0)"/>
</clipPath>
</defs>
</svg>
