<svg width="256" height="256" viewBox="0 0 256 256" fill="none" xmlns="http://www.w3.org/2000/svg">
<path d="M128.02 128H0.0195312V256H128.02V128Z" fill="#278D75"/>
<path d="M127.981 191.99V182.587H116.323C92.6232 182.587 73.3934 163.377 73.3934 139.657V128H54.5874V139.657C54.5874 163.358 35.3768 182.587 11.6574 182.587H0V191.99H127.981Z" fill="#074739"/>
<path d="M127.981 242.204V232.801H116.323C92.6232 232.801 73.3934 213.59 73.3934 189.871V178.213H54.5874V189.871C54.5874 213.571 35.3768 232.801 11.6574 232.801H0V242.204H127.981Z" fill="#074739"/>
<path d="M76.457 256H51.543C53.5083 251.087 54.5874 245.711 54.5874 240.085V228.427H73.3933V240.085C73.3933 245.711 74.4724 251.087 76.4377 256H76.457Z" fill="#074739"/>
<path d="M192 192H256V128H192V192Z" fill="#278D75"/>
<path d="M243.629 128H240.518V192H243.629V128Z" fill="#FDF5D4"/>
<path d="M256 141.478H192V144.59H256V141.478Z" fill="#FDF5D4"/>
<path d="M248.505 134.387L247.127 135.765C244.333 138.559 239.805 138.559 237.011 135.765L235.633 134.387L233.417 136.603L234.795 137.981C237.589 140.775 237.589 145.303 234.795 148.097L233.417 149.474L235.633 151.69L237.011 150.313C239.805 147.519 244.333 147.519 247.127 150.313L248.505 151.69L250.721 149.474L249.343 148.097C246.549 145.303 246.549 140.775 249.343 137.981L250.721 136.603L248.505 134.387Z" fill="#FDF5D4"/>
<path d="M256 64H192V128H256V64Z" fill="#FDF5D4"/>
<path d="M200.796 64L192 72.7864V68.3932L196.403 64H200.796Z" fill="#074739"/>
<path d="M215.151 64L192 87.1414V82.7385L210.748 64H215.151Z" fill="#074739"/>
<path d="M243.851 64L192 115.842V111.439L239.458 64H243.851Z" fill="#074739"/>
<path d="M256 64V66.1966L194.206 128H192V125.794L253.803 64H256Z" fill="#074739"/>
<path d="M256 76.1489V80.5517L208.551 128H204.158L256 76.1489Z" fill="#074739"/>
<path d="M256 90.5037V94.8969L222.907 128H218.504L256 90.5037Z" fill="#074739"/>
<path d="M256 104.858V109.252L237.252 128H232.859L256 104.858Z" fill="#074739"/>
<path d="M256 119.204V123.607L251.607 128H247.214L256 119.204Z" fill="#074739"/>
<path d="M229.496 64L192 101.496V97.0935L225.103 64H229.496Z" fill="#074739"/>
<path d="M192 128H128V192H192V128Z" fill="#A10D15"/>
<path d="M161.575 170.67V168.724C161.575 164.774 164.783 161.565 168.733 161.565H170.679V158.425H168.733C164.783 158.425 161.575 155.216 161.575 151.266V149.32H158.434V151.266C158.434 155.216 155.226 158.425 151.276 158.425H149.33V161.565H151.276C155.226 161.565 158.434 164.774 158.434 168.724V170.67H161.575Z" fill="#FDF5D4"/>
<path d="M256 0H192V64H256V0Z" fill="#FDF5D4"/>
<path d="M225.565 42.6697V40.7236C225.565 36.7736 228.774 33.5654 232.724 33.5654H234.67V30.4246H232.724C228.774 30.4246 225.565 27.2164 225.565 23.2664V21.3203H222.425V23.2664C222.425 27.2164 219.216 30.4246 215.266 30.4246H213.32V33.5654H215.266C219.216 33.5654 222.425 36.7736 222.425 40.7236V42.6697H225.565Z" fill="#A10D15"/>
<path d="M192 64H128V128H192V64Z" fill="#278D75"/>
<path d="M139.455 75.7153V74.7423C139.455 72.7673 141.054 71.168 143.029 71.168H144.002V69.5976H143.029C141.054 69.5976 139.455 67.9984 139.455 66.0233V65.0503H137.885V66.0233C137.885 67.9984 136.285 69.5976 134.31 69.5976H133.337V71.168H134.31C136.285 71.168 137.885 72.7673 137.885 74.7423V75.7153H139.455Z" fill="#FDF5D4"/>
<path d="M192 75.7153H191.21V74.7423C191.21 72.7673 189.611 71.168 187.636 71.168H186.663V69.5976H187.636C189.611 69.5976 191.21 67.9984 191.21 66.0233V65.0503H192V75.7153Z" fill="#FDF5D4"/>
<path d="M144.783 81.043V80.0699C144.783 78.0949 146.382 76.4956 148.357 76.4956H149.33V74.9253H148.357C146.382 74.9253 144.783 73.326 144.783 71.351V70.3779H143.212V71.351C143.212 73.326 141.613 74.9253 139.638 74.9253H138.665V76.4956H139.638C141.613 76.4956 143.212 78.0949 143.212 80.0699V81.043H144.783Z" fill="#FDF5D4"/>
<path d="M176.788 81.043V80.0699C176.788 78.0949 178.387 76.4956 180.362 76.4956H181.335V74.9253H180.362C178.387 74.9253 176.788 73.326 176.788 71.351V70.3779H175.217V71.351C175.217 73.326 173.618 74.9253 171.643 74.9253H170.67V76.4956H171.643C173.618 76.4956 175.217 78.0949 175.217 80.0699V81.043H176.788Z" fill="#FDF5D4"/>
<path d="M155.448 92.5173V91.5443C155.448 89.5693 157.047 87.97 159.022 87.97H159.995V86.3996H159.022C157.047 86.3996 155.448 84.8004 155.448 82.8253V81.8523H153.877V82.8253C153.877 84.8004 152.278 86.3996 150.303 86.3996H149.33V87.97H150.303C152.278 87.97 153.877 89.5693 153.877 91.5443V92.5173H155.448Z" fill="#FDF5D4"/>
<path d="M134.118 104.001V103.028C134.118 101.053 135.717 99.4541 137.692 99.4541H138.665V97.8838H137.692C135.717 97.8838 134.118 96.2845 134.118 94.3095V93.3364H132.547V94.3095C132.547 96.2845 130.948 97.8838 128.973 97.8838H128V99.4541H128.973C130.948 99.4541 132.547 101.053 132.547 103.028V104.001H134.118Z" fill="#FDF5D4"/>
<path d="M160.785 110.138V109.165C160.785 107.19 162.384 105.591 164.359 105.591H165.333V104.02H164.359C162.384 104.02 160.785 102.421 160.785 100.446V99.4731H159.215V100.446C159.215 102.421 157.616 104.02 155.641 104.02H154.667V105.591H155.641C157.616 105.591 159.215 107.19 159.215 109.165V110.138H160.785Z" fill="#FDF5D4"/>
<path d="M182.115 110.138V109.165C182.115 107.19 183.715 105.591 185.69 105.591H186.663V104.02H185.69C183.715 104.02 182.115 102.421 182.115 100.446V99.4731H180.545V100.446C180.545 102.421 178.946 104.02 176.971 104.02H175.998V105.591H176.971C178.946 105.591 180.545 107.19 180.545 109.165V110.138H182.115Z" fill="#FDF5D4"/>
<path d="M176.788 115.476V114.503C176.788 112.528 178.387 110.928 180.362 110.928H181.335V109.358H180.362C178.387 109.358 176.788 107.759 176.788 105.784V104.811H175.217V105.784C175.217 107.759 173.618 109.358 171.643 109.358H170.67V110.928H171.643C173.618 110.928 175.217 112.528 175.217 114.503V115.476H176.788Z" fill="#FDF5D4"/>
<path d="M139.455 121.612V120.639C139.455 118.664 141.054 117.065 143.029 117.065H144.002V115.495H143.029C141.054 115.495 139.455 113.895 139.455 111.92V110.947H137.885V111.92C137.885 113.895 136.285 115.495 134.31 115.495H133.337V117.065H134.31C136.285 117.065 137.885 118.664 137.885 120.639V121.612H139.455Z" fill="#FDF5D4"/>
<path d="M187.453 126.95V125.977C187.453 124.002 189.052 122.402 191.027 122.402H192V120.832H191.027C189.052 120.832 187.453 119.233 187.453 117.258V116.285H185.882V117.258C185.882 119.233 184.283 120.832 182.308 120.832H181.335V122.402H182.308C184.283 122.402 185.882 124.002 185.882 125.977V126.95H187.453Z" fill="#FDF5D4"/>
</svg>
