<svg width="256" height="192" viewBox="0 0 256 192" fill="none" xmlns="http://www.w3.org/2000/svg">
<path d="M64.0098 128H0.00976562V192H64.0098V128Z" fill="#FDF5D4"/>
<path d="M21.3495 128V129.513H19.4131C15.463 129.513 12.2548 132.721 12.2548 136.671V138.607H9.11409V136.671C9.11409 132.721 5.9059 129.513 1.95588 129.513H0.00976562V128H21.3399H21.3495Z" fill="#278D75"/>
<path d="M64.0192 128V129.513H62.0731C58.1231 129.513 54.9149 132.721 54.9149 136.671V138.607H51.7741V136.671C51.7741 132.721 48.5756 129.513 44.6159 129.513H42.6794V128H64.0096H64.0192Z" fill="#278D75"/>
<path d="M12.2451 159.947V158.001C12.2451 154.051 15.4533 150.843 19.4033 150.843H21.3494V147.702H19.4033C15.4533 147.702 12.2451 144.494 12.2451 140.544V138.598H9.10432V140.544C9.10432 144.494 5.89613 147.702 1.94611 147.702H0V150.843H1.94611C5.89613 150.843 9.10432 154.051 9.10432 158.001V159.947H12.2451Z" fill="#278D75"/>
<path d="M54.915 159.947V158.001C54.915 154.051 58.1232 150.843 62.0732 150.843H64.0193V147.702H62.0732C58.1232 147.702 54.915 144.494 54.915 140.544V138.598H51.7742V140.544C51.7742 144.494 48.5661 147.702 44.616 147.702H42.6699V150.843H44.616C48.5661 150.843 51.7742 154.051 51.7742 158.001V159.947H54.915Z" fill="#278D75"/>
<path d="M12.2451 181.277V179.331C12.2451 175.381 15.4533 172.173 19.4033 172.173H21.3494V169.032H19.4033C15.4533 169.032 12.2451 165.824 12.2451 161.874V159.928H9.10432V161.874C9.10432 165.824 5.89613 169.032 1.94611 169.032H0V172.173H1.94611C5.89613 172.173 9.10432 175.381 9.10432 179.331V181.277H12.2451Z" fill="#278D75"/>
<path d="M54.915 181.277V179.331C54.915 175.381 58.1232 172.173 62.0732 172.173H64.0193V169.032H62.0732C58.1232 169.032 54.915 165.824 54.915 161.874V159.928H51.7742V161.874C51.7742 165.824 48.5661 169.032 44.616 169.032H42.6699V172.173H44.616C48.5661 172.173 51.7742 175.381 51.7742 179.331V181.277H54.915Z" fill="#278D75"/>
<path d="M21.3494 190.381V192H0.0192871V190.381H1.9654C5.91542 190.381 9.12361 187.173 9.12361 183.223V181.277H12.2644V183.223C12.2644 187.173 15.4725 190.381 19.4226 190.381H21.359H21.3494Z" fill="#278D75"/>
<path d="M64.0193 190.381V192H42.6892V190.381H44.6257C48.5757 190.381 51.7839 187.173 51.7839 183.223V181.277H54.9246V183.223C54.9246 187.173 58.1328 190.381 62.0829 190.381H64.029H64.0193Z" fill="#278D75"/>
<path d="M64 64H0V128H64V64Z" fill="#FDF5D4"/>
<path d="M3.11184 64H0V128H3.11184V64Z" fill="#278D75"/>
<path d="M13.2566 64H10.1448V128H13.2566V64Z" fill="#278D75"/>
<path d="M33.5559 64H30.4441V128H33.5559V64Z" fill="#278D75"/>
<path d="M43.7007 64H40.5889V128H43.7007V64Z" fill="#278D75"/>
<path d="M53.855 64H50.7432V128H53.855V64Z" fill="#278D75"/>
<path d="M64 64H60.8882V128H64V64Z" fill="#278D75"/>
<path d="M23.4112 64H20.2993V128H23.4112V64Z" fill="#278D75"/>
<path d="M128 128H64V192H128V128Z" fill="#278D75"/>
<path d="M97.5751 170.67V168.724C97.5751 164.774 100.783 161.565 104.733 161.565H106.679V158.425H104.733C100.783 158.425 97.5751 155.216 97.5751 151.266V149.32H94.4344V151.266C94.4344 155.216 91.2262 158.425 87.2762 158.425H85.3301V161.565H87.2762C91.2262 161.565 94.4344 164.774 94.4344 168.724V170.67H97.5751Z" fill="#FDF5D4"/>
<path d="M128 64H64V128H128V64Z" fill="#074739"/>
<path d="M127.99 95.9952V91.2937H122.162C110.312 91.2937 100.697 81.6884 100.697 69.8287V64H91.2937V69.8287C91.2937 81.6788 81.6884 91.2937 69.8287 91.2937H64V95.9952H127.99Z" fill="#278D75"/>
<path d="M127.99 121.102V116.4H122.162C110.312 116.4 100.697 106.795 100.697 94.9354V89.1067H91.2937V94.9354C91.2937 106.785 81.6884 116.4 69.8287 116.4H64V121.102H127.99Z" fill="#278D75"/>
<path d="M102.219 128H89.762C90.7447 125.543 91.2842 122.856 91.2842 120.042V114.214H100.687V120.042C100.687 122.856 101.227 125.543 102.209 128H102.219Z" fill="#278D75"/>
<path d="M256 0H128V128H256V0Z" fill="#278D75"/>
<path d="M246.462 128V116.362C246.462 92.7006 227.29 73.5286 203.628 73.5286H191.99H180.371C156.71 73.5286 137.519 92.7006 137.519 116.362V128H246.462Z" fill="#FDF5D4"/>
<path d="M177.828 79.5786V77.4205C177.828 73.0466 174.282 69.5012 169.909 69.5012H167.75H165.592C161.218 69.5012 157.673 73.0466 157.673 77.4205V79.5786H177.828Z" fill="#FDF5D4"/>
<path d="M226.326 79.5786V77.4205C226.326 73.0466 222.781 69.5012 218.407 69.5012H216.249H214.091C209.717 69.5012 206.172 73.0466 206.172 77.4205V79.5786H226.326Z" fill="#FDF5D4"/>
<path d="M200.314 117.614H198.792C195.709 117.614 193.223 115.11 193.223 112.046V110.524H190.776V112.046C190.776 115.129 188.271 117.614 185.208 117.614H183.686" stroke="#278D75" stroke-width="1.56" stroke-miterlimit="10"/>
<path d="M183.397 102.18V104.011C183.397 107.749 186.422 110.774 190.16 110.774H191.99H193.821C197.559 110.774 200.584 107.749 200.584 104.011V102.18H183.377H183.397Z" fill="#FF866A"/>
<path d="M152.047 44.7603V42.8142C152.047 38.8642 155.245 35.6656 159.195 35.6656H161.141V32.5248H159.195C155.245 32.5248 152.047 29.3263 152.047 25.3763V23.4302H148.906V25.3763C148.906 29.3263 145.707 32.5248 141.757 32.5248H139.811V35.6656H141.757C145.707 35.6656 148.906 38.8642 148.906 42.8142V44.7603H152.047Z" fill="#FDF5D4"/>
<path d="M237.367 67.7093V65.7632C237.367 61.8131 240.566 58.6146 244.516 58.6146H246.462V55.4738H244.516C240.566 55.4738 237.367 52.2753 237.367 48.3253V46.3792H234.227V48.3253C234.227 52.2753 231.028 55.4738 227.078 55.4738H225.132V58.6146H227.078C231.028 58.6146 234.227 61.8131 234.227 65.7632V67.7093H237.367Z" fill="#FDF5D4"/>
<path d="M128 0H64V64H128V0Z" fill="#FDF5D4"/>
<path d="M97.5654 42.6697V40.7236C97.5654 36.7736 100.774 33.5654 104.724 33.5654H106.67V30.4246H104.724C100.774 30.4246 97.5654 27.2164 97.5654 23.2664V21.3203H94.4246V23.2664C94.4246 27.2164 91.2164 30.4246 87.2664 30.4246H85.3203V33.5654H87.2664C91.2164 33.5654 94.4246 36.7736 94.4246 40.7236V42.6697H97.5654Z" fill="#A10D15"/>
</svg>
