<svg width="150" height="86" viewBox="0 0 150 86" fill="none" xmlns="http://www.w3.org/2000/svg"><path d="M20.6 61.7C20 61.1 19.3 60.4 18.4 59.9C17 59.1 15.1 58.5 12.6 58.5C9.1 58.5 5.9 59.9 3.7 62.3C1.4 64.6 0 67.9 0 71.7C0 75.5 1.4 78.8 3.7 81.1C6 83.5 9.2 84.9 12.6 84.9C15 84.9 17 84.3 18.4 83.5C19.3 83 20 82.4 20.6 81.7V84.2H25.2V59.2H20.6V61.7ZM12.7 80.5C10.4 80.5 8.4 79.6 7 78C5.6 76.4 4.7 74.2 4.7 71.7C4.7 69.2 5.6 66.9 7 65.4C8.4 63.8 10.4 62.9 12.7 62.9C15.1 62.9 17.2 63.8 18.7 65.4C20.2 67 21.1 69.2 21.1 71.7C21.1 74.2 20.2 76.4 18.7 78C17.2 79.6 15.1 80.5 12.7 80.5Z" fill="#F37022"/><path d="M53.5969 59.2002H52.5969H48.2969L42.2969 67.3002L36.2969 59.2002H30.9969L39.7969 70.9002L30.2969 84.2002H35.4969L42.3969 74.6002L49.1969 84.2002H54.3969L44.8969 70.9002L53.5969 59.2002Z" fill="#F37022"/><path d="M75.2 59.5C73.8 58.9 72.2 58.5 70.5 58.5C66.9 58.5 63.8 59.8 61.5 62.1C59.3 64.5 58 67.8 58 71.8V72C58 75.8 59.3 79.1 61.5 81.3C63.7 83.6 66.9 84.8 70.6 84.8C72.4 84.8 74.1 84.6 75.8 83.9C77.5 83.2 79.1 82.1 80.7 80.4L81 80L77.9 77L77.5 77.4C76.5 78.4 75.6 79.2 74.5 79.7C73.4 80.2 72.2 80.5 70.5 80.5C69.3 80.5 68.2 80.3 67.3 79.9C65.9 79.3 64.7 78.4 63.9 77.1C63.2 76 62.7 74.5 62.6 72.9H82V72.4C82 71.7 82 70.9 82 70.8C82 67.4 80.9 64.3 78.9 62C77.9 61 76.7 60.1 75.2 59.5ZM65.2 64.8C66.6 63.6 68.4 62.9 70.5 62.9C72.4 62.9 74 63.6 75.2 64.8C76.3 65.9 77 67.3 77.1 68.9H62.9C63.1 67.3 64 65.8 65.2 64.8Z" fill="#000"/><path d="M105.3 60.2998C103.8 59.2998 101.9 58.7998 99.8 58.7998C97.9 58.7998 96.2 59.2998 94.8 60.0998C94 60.5998 93.3 61.1998 92.7 61.8998V59.0998H88V84.0998H92.6V69.3998C92.6 67.4998 93.2 65.9998 94.3 64.8998C95.4 63.7998 96.9 63.1998 98.8 63.1998C99.7 63.1998 100.5 63.2998 101.2 63.5998C102.2 63.9998 103.1 64.6998 103.6 65.5998C104.2 66.4998 104.5 67.6998 104.5 69.0998V84.1998H109.1V68.3998C109.1 66.9998 108.9 65.6998 108.5 64.4998C107.9 62.7998 106.8 61.2998 105.3 60.2998Z" fill="#000"/><path d="M116.102 84.2002H116.602H120.802V59.2002H116.102V84.2002Z" fill="#000"/><path d="M140.498 70.9002L149.198 59.2002H143.898L137.898 67.3002L131.898 59.2002H126.598L135.398 70.9002L125.898 84.2002H131.098L137.998 74.6002L144.798 84.2002H149.998L140.498 70.9002Z" fill="#000"/><path d="M21.0969 46.7001C20.7969 46.1001 20.4969 45.5001 20.2969 44.9001C19.6969 43.0001 19.5969 41.0001 19.9969 39.1001C20.4969 37.2001 21.4969 35.4001 22.9969 34.0001L53.5969 6.7001V1.1001L20.2969 31.1001C18.7969 32.4001 17.6969 34.0001 16.8969 35.6001C15.6969 38.1001 15.2969 40.9001 15.6969 43.6001C16.0969 46.3001 17.2969 49.0001 19.1969 51.2001L20.5969 52.7001L53.5969 23.0001V17.5001L21.0969 46.7001Z" fill="#F37022"/><path d="M33 52.7002H39.2L53.6 39.8002V34.2002L33 52.7002Z" fill="#F37022"/></svg>