<svg width="256" height="192" viewBox="0 0 256 192" fill="none" xmlns="http://www.w3.org/2000/svg"><mask id="mask0_357_2026" style="mask-type:luminance" maskUnits="userSpaceOnUse" x="128" y="128" width="64" height="64"><path d="M192 128H128V192H192V128Z" fill="#fff"/></mask><g mask="url(#mask0_357_2026)"><path d="M192 128H128V192H192V128Z" fill="#278D75"/><path d="M174.754 151.324C174.754 152.066 174.648 152.779 174.455 153.463C173.713 156.132 171.613 158.242 168.935 158.984C168.251 159.176 167.538 159.282 166.796 159.282C166.054 159.282 165.274 159.167 164.561 158.964C162.181 158.271 160.254 156.488 159.378 154.195C159.031 153.309 158.848 152.346 158.848 151.334C158.848 151.006 158.829 150.689 158.8 150.38C158.626 148.569 157.952 147.047 156.825 145.929C156.227 145.342 155.505 144.869 154.695 144.532C153.713 144.128 152.595 143.916 151.401 143.916H151.304C151.169 143.916 151.034 143.916 150.9 143.935C148.713 144.051 146.747 144.889 145.456 146.276C144.31 147.509 143.79 149.051 143.896 150.862C143.896 150.881 143.896 150.91 143.896 150.929C143.896 151.064 143.896 151.209 143.896 151.344V193.397C143.896 193.599 143.896 193.802 143.876 193.994C143.587 197.906 140.466 201.027 136.554 201.316C136.352 201.336 136.159 201.336 135.957 201.336C133.414 201.336 131.15 200.141 129.695 198.272C129.02 197.414 128.519 196.403 128.25 195.305C128.095 194.688 128.009 194.042 128.009 193.378V151.536C127.806 147.394 128.702 143.405 130.581 139.918C131.458 138.299 132.537 136.786 133.828 135.409C135.456 133.655 137.373 132.181 139.483 131.025C142.971 129.098 146.998 128.039 151.16 128C151.593 128 152.017 128 152.441 128.019C153.78 128.077 155.09 128.231 156.372 128.491C158.954 129.012 161.382 129.927 163.597 131.218C164.513 131.748 165.38 132.345 166.208 133.01C166.835 133.511 167.442 134.05 168.02 134.628C169.128 135.727 170.11 136.931 170.948 138.222C171.536 139.118 172.066 140.072 172.519 141.045C173.646 143.463 174.369 146.112 174.629 148.887C174.706 149.687 174.744 150.505 174.744 151.324H174.754Z" fill="#A10D15"/><path d="M139.492 131.025L130.6 139.917C131.477 138.299 132.556 136.786 133.847 135.408C135.475 133.655 137.392 132.181 139.502 131.025H139.492Z" fill="#FDF5D4"/><path d="M143.925 151.324V155.303L128.028 171.2V166.797L143.915 150.91C143.915 151.045 143.915 151.19 143.915 151.324H143.925Z" fill="#FDF5D4"/><path d="M166.218 133L154.705 144.513C153.722 144.108 152.605 143.897 151.41 143.897H151.314C151.179 143.897 151.044 143.897 150.909 143.916L163.597 131.228C164.513 131.757 165.38 132.355 166.208 133.019L166.218 133Z" fill="#FDF5D4"/><path d="M143.925 165.246V169.648L128.028 185.545V181.152L143.925 165.246Z" fill="#FDF5D4"/><path d="M172.538 141.035L159.397 154.176C159.05 153.289 158.867 152.326 158.867 151.314C158.867 150.987 158.848 150.669 158.819 150.361L170.968 138.212C171.555 139.108 172.085 140.062 172.538 141.035Z" fill="#FDF5D4"/><path d="M143.925 179.601V184.003L129.705 198.272C129.03 197.414 128.529 196.403 128.26 195.304L143.925 179.601Z" fill="#FDF5D4"/><path d="M174.754 151.324C174.754 152.066 174.648 152.779 174.455 153.463L168.935 158.983C168.251 159.176 167.538 159.282 166.796 159.282C166.054 159.282 165.274 159.167 164.561 158.964L174.629 148.896C174.706 149.696 174.744 150.515 174.744 151.334L174.754 151.324Z" fill="#FDF5D4"/><path d="M156.382 128.491L128.019 156.854V152.461L152.451 128.029C153.79 128.087 155.1 128.241 156.382 128.501V128.491Z" fill="#FDF5D4"/></g><path d="M256 64H192V128H256V64Z" fill="#FDF5D4"/><path d="M239.255 99.3383V96.082C239.255 89.4537 233.889 84.0874 227.261 84.0874H224.004H220.748C214.12 84.0874 208.753 89.4537 208.753 96.082V99.3383H239.255Z" fill="#FF866A"/><path d="M208.744 98.7314V101.988C208.744 108.616 214.11 113.982 220.739 113.982H223.995H227.251C233.88 113.982 239.246 108.616 239.246 101.988V98.7314H208.744Z" fill="#FF866A"/><path d="M224.457 84.0778V81.862C224.457 77.3628 220.806 73.7114 216.307 73.7114H214.1V75.9273C214.1 80.4265 217.752 84.0778 222.251 84.0778H224.467H224.457Z" fill="#074739"/><path d="M192 64H128V128H192V64Z" fill="#A10D15"/><path d="M136.796 64L128 72.7864V68.3932L132.393 64H136.796Z" fill="#FDF5D4"/><path d="M151.141 64L128 87.1414V82.7385L146.748 64H151.141Z" fill="#FDF5D4"/><path d="M179.851 64L128 115.842V111.439L175.448 64H179.851Z" fill="#FDF5D4"/><path d="M192 64V66.1966L130.197 128H128V125.794L189.803 64H192Z" fill="#FDF5D4"/><path d="M192 76.1489V80.5517L144.552 128H140.149L192 76.1489Z" fill="#FDF5D4"/><path d="M192 90.5039V94.8971L158.897 128H154.503L192 90.5039Z" fill="#FDF5D4"/><path d="M192 104.858V109.252L173.252 128H168.849L192 104.858Z" fill="#FDF5D4"/><path d="M192 119.204V123.607L187.607 128H183.204L192 119.204Z" fill="#FDF5D4"/><path d="M165.496 64L128 101.496V97.0935L161.103 64H165.496Z" fill="#FDF5D4"/><path d="M192 0H128V64H192V0Z" fill="#FDF5D4"/><path d="M136.796 0L128 8.78639V4.39319L132.403 0H136.796Z" fill="#074739"/><path d="M151.151 0L128 23.1414V18.7385L146.748 0H151.151Z" fill="#074739"/><path d="M179.851 0L128 51.8416V47.4388L175.458 0H179.851Z" fill="#074739"/><path d="M192 0V2.1966L130.206 64H128V61.7938L189.803 0H192Z" fill="#074739"/><path d="M192 12.1489V16.5517L144.552 64.0002H140.158L192 12.1489Z" fill="#074739"/><path d="M192 26.5039V30.8971L158.906 64.0002H154.503L192 26.5039Z" fill="#074739"/><path d="M192 40.8584V45.2516L173.252 63.9997H168.859L192 40.8584Z" fill="#074739"/><path d="M192 55.2041V59.6069L187.606 64.0001H183.213L192 55.2041Z" fill="#074739"/><path d="M165.496 0L128 37.4963V33.0935L161.103 0H165.496Z" fill="#074739"/><path d="M128 64H0V191.981H128V64Z" fill="#278D75"/><path d="M9.53809 137.536V149.173C9.53809 172.831 28.7101 192 52.3717 192H64.0099H75.6287C99.2903 192 118.482 172.831 118.482 149.173V137.536H9.53809Z" fill="#FDF5D4"/><path d="M96.4197 96.4046V89.4883C96.4197 75.4052 85.0128 64 70.9276 64H64.0103H57.0929C43.0077 64 31.6008 75.4052 31.6008 89.4883V96.4046H96.4197Z" fill="#A10D15"/><path d="M63.99 124.725L60.5217 128.193C53.4887 135.225 42.0626 135.225 35.0296 128.193L31.5613 124.725" stroke="#FDF5D4" stroke-width="5.03" stroke-miterlimit="10"/><path d="M96.419 124.725L92.9506 128.193C85.9177 135.225 74.4915 135.225 67.4585 128.193L63.9902 124.725" stroke="#FDF5D4" stroke-width="5.03" stroke-miterlimit="10"/><path d="M72.6029 124.725V122.895C72.6029 119.157 69.5778 116.132 65.8397 116.132H64.0092H62.1787C58.4407 116.132 55.4155 119.157 55.4155 122.895V124.725H72.6222H72.6029Z" fill="#FF866A"/><path d="M94.4353 85.9819H33.5471C28.8329 85.9819 25.0112 89.803 25.0112 94.5166V98.543C25.0112 103.257 28.8329 107.078 33.5471 107.078H94.4353C99.1495 107.078 102.971 103.257 102.971 98.543V94.5166C102.971 89.803 99.1495 85.9819 94.4353 85.9819Z" fill="#FDF5D4"/></svg>