<svg width="96" height="96" viewBox="0 0 96 96" fill="none" xmlns="http://www.w3.org/2000/svg"><g clip-path="url(#clip0_373_360)" fill="#252628"><path d="M95.9972 56.5205H0.166016V62.0881H95.9972V56.5205Z"/><path d="M0.166016 96.0004H6.0711V89.5892H39.6458V67.656H0.166016V96.0004ZM6.0711 73.2236H33.7406V84.0216H6.0711V73.2236Z"/><path d="M45.2188 89.5895H67.4894V96.0007H73.5632V89.5895H95.8338V67.6562H45.2188V89.5895ZM73.5632 73.2241H90.0973V84.0219H73.5632V73.2241ZM51.1237 73.2241H67.4894V84.0219H51.1237V73.2241Z"/><path d="M50.9518 0H28.3438V50.7838H50.9518V0ZM45.0467 45.2162H34.2487V5.73638H45.0467V45.2162Z"/><path d="M62.5925 17.0404L73.3903 5.73638V50.9526H79.2955V17.0404L89.9247 5.73638V50.9526H95.8297V0H87.5627L79.2955 8.77328V0H71.0283L56.6875 14.8471V50.9526H62.5925V17.0404Z"/><path d="M16.703 50.9526H22.608V45.3848V0H14.3409L0 14.8471V45.2162V50.7838H5.9051H16.703V50.9526ZM6.0738 17.0404L16.8717 5.73638V45.2162H6.0738V17.0404Z"/></g><defs><clipPath id="clip0_373_360"><path fill="#fff" d="M0 0H96V96H0z"/></clipPath></defs></svg>