<svg width="312" height="64" viewBox="0 0 312 64" fill="none" xmlns="http://www.w3.org/2000/svg"><g clip-path="url(#clip0_656_352)" fill="#fff"><path d="M7.97461 1.48474C7.97461 0.784825 7.97461 0.434871 8.19019 0.217435C8.40576 0 8.75277 0 9.4468 0H13.8635C14.5575 0 14.9045 0 15.1202 0.217435C15.3358 0.434871 15.3358 0.784825 15.3358 1.48474V5.93897C15.3358 6.63888 15.3358 6.98884 15.1202 7.20626C14.9045 7.42372 14.5575 7.42372 13.8635 7.42372H9.4468C8.75277 7.42372 8.40576 7.42372 8.19019 7.20626C7.97461 6.98884 7.97461 6.63888 7.97461 5.93897V1.48474Z"/><path d="M15.9492 1.48474C15.9492 0.784825 15.9492 0.434871 16.1649 0.217435C16.3804 0 16.7275 0 17.4215 0H21.8382C22.5322 0 22.8792 0 23.0948 0.217435C23.3104 0.434871 23.3104 0.784825 23.3104 1.48474V5.93897C23.3104 6.63888 23.3104 6.98884 23.0948 7.20626C22.8792 7.42372 22.5322 7.42372 21.8382 7.42372H17.4215C16.7275 7.42372 16.3804 7.42372 16.1649 7.20626C15.9492 6.98884 15.9492 6.63888 15.9492 5.93897V1.48474Z"/><path d="M47.8477 1.48474C47.8477 0.784825 47.8477 0.434871 48.0632 0.217435C48.2788 0 48.6258 0 49.3198 0H53.7365C54.4306 0 54.7776 0 54.9932 0.217435C55.2088 0.434871 55.2088 0.784825 55.2088 1.48474V5.93897C55.2088 6.63888 55.2088 6.98884 54.9932 7.20626C54.7776 7.42372 54.4306 7.42372 53.7365 7.42372H49.3198C48.6258 7.42372 48.2788 7.42372 48.0632 7.20626C47.8477 6.98884 47.8477 6.63888 47.8477 5.93897V1.48474Z"/><path d="M55.8223 1.48474C55.8223 0.784825 55.8223 0.434871 56.0379 0.217435C56.2535 0 56.6005 0 57.2945 0H61.7112C62.4053 0 62.7523 0 62.9678 0.217435C63.1835 0.434871 63.1835 0.784825 63.1835 1.48474V5.93897C63.1835 6.63888 63.1835 6.98884 62.9678 7.20626C62.7523 7.42372 62.4053 7.42372 61.7112 7.42372H57.2945C56.6005 7.42372 56.2535 7.42372 56.0379 7.20626C55.8223 6.98884 55.8223 6.63888 55.8223 5.93897V1.48474Z"/><path d="M0 9.52704C0 8.82709 0 8.47715 0.215604 8.25969C0.431208 8.04224 0.778214 8.04224 1.47224 8.04224H5.88894C6.58296 8.04224 6.92997 8.04224 7.14558 8.25969C7.36115 8.47715 7.36115 8.82709 7.36115 9.52704V13.9812C7.36115 14.6812 7.36115 15.0311 7.14558 15.2486C6.92997 15.466 6.58296 15.466 5.88894 15.466H1.47224C0.778214 15.466 0.431208 15.466 0.215604 15.2486C0 15.0311 0 14.6812 0 13.9812V9.52704Z"/><path d="M7.97461 9.52704C7.97461 8.82709 7.97461 8.47715 8.19019 8.25969C8.40576 8.04224 8.75277 8.04224 9.4468 8.04224H13.8635C14.5575 8.04224 14.9045 8.04224 15.1202 8.25969C15.3358 8.47715 15.3358 8.82709 15.3358 9.52704V13.9812C15.3358 14.6812 15.3358 15.0311 15.1202 15.2486C14.9045 15.466 14.5575 15.466 13.8635 15.466H9.4468C8.75277 15.466 8.40576 15.466 8.19019 15.2486C7.97461 15.0311 7.97461 14.6812 7.97461 13.9812V9.52704Z"/><path d="M15.9492 9.52704C15.9492 8.82709 15.9492 8.47715 16.1649 8.25969C16.3804 8.04224 16.7275 8.04224 17.4215 8.04224H21.8382C22.5322 8.04224 22.8792 8.04224 23.0948 8.25969C23.3104 8.47715 23.3104 8.82709 23.3104 9.52704V13.9812C23.3104 14.6812 23.3104 15.0311 23.0948 15.2486C22.8792 15.466 22.5322 15.466 21.8382 15.466H17.4215C16.7275 15.466 16.3804 15.466 16.1649 15.2486C15.9492 15.0311 15.9492 14.6812 15.9492 13.9812V9.52704Z"/><path d="M23.9238 9.52704C23.9238 8.82709 23.9238 8.47715 24.1394 8.25969C24.355 8.04224 24.7021 8.04224 25.3961 8.04224H29.8128C30.5067 8.04224 30.8538 8.04224 31.0694 8.25969C31.285 8.47715 31.285 8.82709 31.285 9.52704V13.9812C31.285 14.6812 31.285 15.0311 31.0694 15.2486C30.8538 15.466 30.5067 15.466 29.8128 15.466H25.3961C24.7021 15.466 24.355 15.466 24.1394 15.2486C23.9238 15.0311 23.9238 14.6812 23.9238 13.9812V9.52704Z"/><path d="M39.873 9.52704C39.873 8.82709 39.873 8.47715 40.0886 8.25969C40.3043 8.04224 40.6513 8.04224 41.3453 8.04224H45.762C46.456 8.04224 46.803 8.04224 47.0186 8.25969C47.2342 8.47715 47.2342 8.82709 47.2342 9.52704V13.9812C47.2342 14.6812 47.2342 15.0311 47.0186 15.2486C46.803 15.466 46.456 15.466 45.762 15.466H41.3453C40.6513 15.466 40.3043 15.466 40.0886 15.2486C39.873 15.0311 39.873 14.6812 39.873 13.9812V9.52704Z"/><path d="M47.8477 9.52704C47.8477 8.82709 47.8477 8.47715 48.0632 8.25969C48.2788 8.04224 48.6258 8.04224 49.3198 8.04224H53.7365C54.4306 8.04224 54.7776 8.04224 54.9932 8.25969C55.2088 8.47715 55.2088 8.82709 55.2088 9.52704V13.9812C55.2088 14.6812 55.2088 15.0311 54.9932 15.2486C54.7776 15.466 54.4306 15.466 53.7365 15.466H49.3198C48.6258 15.466 48.2788 15.466 48.0632 15.2486C47.8477 15.0311 47.8477 14.6812 47.8477 13.9812V9.52704Z"/><path d="M55.8223 9.52704C55.8223 8.82709 55.8223 8.47715 56.0379 8.25969C56.2535 8.04224 56.6005 8.04224 57.2945 8.04224H61.7112C62.4053 8.04224 62.7523 8.04224 62.9678 8.25969C63.1835 8.47715 63.1835 8.82709 63.1835 9.52704V13.9812C63.1835 14.6812 63.1835 15.0311 62.9678 15.2486C62.7523 15.466 62.4053 15.466 61.7112 15.466H57.2945C56.6005 15.466 56.2535 15.466 56.0379 15.2486C55.8223 15.0311 55.8223 14.6812 55.8223 13.9812V9.52704Z"/><path d="M63.7969 9.52704C63.7969 8.82709 63.7969 8.47715 64.0125 8.25969C64.2281 8.04224 64.5751 8.04224 65.2691 8.04224H69.6858C70.3799 8.04224 70.7266 8.04224 70.9426 8.25969C71.1579 8.47715 71.1579 8.82709 71.1579 9.52704V13.9812C71.1579 14.6812 71.1579 15.0311 70.9426 15.2486C70.7266 15.466 70.3799 15.466 69.6858 15.466H65.2691C64.5751 15.466 64.2281 15.466 64.0125 15.2486C63.7969 15.0311 63.7969 14.6812 63.7969 13.9812V9.52704Z"/><path d="M0 17.5694C0 16.8696 0 16.5196 0.215604 16.3022C0.431208 16.0847 0.778214 16.0847 1.47224 16.0847H5.88894C6.58296 16.0847 6.92997 16.0847 7.14558 16.3022C7.36115 16.5196 7.36115 16.8696 7.36115 17.5694V22.0237C7.36115 22.7236 7.36115 23.0735 7.14558 23.291C6.92997 23.5084 6.58296 23.5084 5.88894 23.5084H1.47224C0.778214 23.5084 0.431208 23.5084 0.215604 23.291C0 23.0735 0 22.7236 0 22.0237V17.5694Z"/><path d="M7.97461 17.5694C7.97461 16.8696 7.97461 16.5196 8.19019 16.3022C8.40576 16.0847 8.75277 16.0847 9.4468 16.0847H13.8635C14.5575 16.0847 14.9045 16.0847 15.1202 16.3022C15.3358 16.5196 15.3358 16.8696 15.3358 17.5694V22.0237C15.3358 22.7236 15.3358 23.0735 15.1202 23.291C14.9045 23.5084 14.5575 23.5084 13.8635 23.5084H9.4468C8.75277 23.5084 8.40576 23.5084 8.19019 23.291C7.97461 23.0735 7.97461 22.7236 7.97461 22.0237V17.5694Z"/><path d="M15.9492 17.5694C15.9492 16.8696 15.9492 16.5196 16.1649 16.3022C16.3804 16.0847 16.7275 16.0847 17.4215 16.0847H21.8382C22.5322 16.0847 22.8792 16.0847 23.0948 16.3022C23.3104 16.5196 23.3104 16.8696 23.3104 17.5694V22.0237C23.3104 22.7236 23.3104 23.0735 23.0948 23.291C22.8792 23.5084 22.5322 23.5084 21.8382 23.5084H17.4215C16.7275 23.5084 16.3804 23.5084 16.1649 23.291C15.9492 23.0735 15.9492 22.7236 15.9492 22.0237V17.5694Z"/><path d="M23.9238 17.5694C23.9238 16.8696 23.9238 16.5196 24.1394 16.3022C24.355 16.0847 24.7021 16.0847 25.3961 16.0847H29.8128C30.5067 16.0847 30.8538 16.0847 31.0694 16.3022C31.285 16.5196 31.285 16.8696 31.285 17.5694V22.0237C31.285 22.7236 31.285 23.0735 31.0694 23.291C30.8538 23.5084 30.5067 23.5084 29.8128 23.5084H25.3961C24.7021 23.5084 24.355 23.5084 24.1394 23.291C23.9238 23.0735 23.9238 22.7236 23.9238 22.0237V17.5694Z"/><path d="M31.8984 17.5694C31.8984 16.8696 31.8984 16.5196 32.1141 16.3022C32.3297 16.0847 32.6767 16.0847 33.3707 16.0847H37.7874C38.4814 16.0847 38.8284 16.0847 39.044 16.3022C39.2597 16.5196 39.2597 16.8696 39.2597 17.5694V22.0237C39.2597 22.7236 39.2597 23.0735 39.044 23.291C38.8284 23.5084 38.4814 23.5084 37.7874 23.5084H33.3707C32.6767 23.5084 32.3297 23.5084 32.1141 23.291C31.8984 23.0735 31.8984 22.7236 31.8984 22.0237V17.5694Z"/><path d="M39.873 17.5694C39.873 16.8696 39.873 16.5196 40.0886 16.3022C40.3043 16.0847 40.6513 16.0847 41.3453 16.0847H45.762C46.456 16.0847 46.803 16.0847 47.0186 16.3022C47.2342 16.5196 47.2342 16.8696 47.2342 17.5694V22.0237C47.2342 22.7236 47.2342 23.0735 47.0186 23.291C46.803 23.5084 46.456 23.5084 45.762 23.5084H41.3453C40.6513 23.5084 40.3043 23.5084 40.0886 23.291C39.873 23.0735 39.873 22.7236 39.873 22.0237V17.5694Z"/><path d="M47.8477 17.5694C47.8477 16.8696 47.8477 16.5196 48.0632 16.3022C48.2788 16.0847 48.6258 16.0847 49.3198 16.0847H53.7365C54.4306 16.0847 54.7776 16.0847 54.9932 16.3022C55.2088 16.5196 55.2088 16.8696 55.2088 17.5694V22.0237C55.2088 22.7236 55.2088 23.0735 54.9932 23.291C54.7776 23.5084 54.4306 23.5084 53.7365 23.5084H49.3198C48.6258 23.5084 48.2788 23.5084 48.0632 23.291C47.8477 23.0735 47.8477 22.7236 47.8477 22.0237V17.5694Z"/><path d="M55.8223 17.5694C55.8223 16.8696 55.8223 16.5196 56.0379 16.3022C56.2535 16.0847 56.6005 16.0847 57.2945 16.0847H61.7112C62.4053 16.0847 62.7523 16.0847 62.9678 16.3022C63.1835 16.5196 63.1835 16.8696 63.1835 17.5694V22.0237C63.1835 22.7236 63.1835 23.0735 62.9678 23.291C62.7523 23.5084 62.4053 23.5084 61.7112 23.5084H57.2945C56.6005 23.5084 56.2535 23.5084 56.0379 23.291C55.8223 23.0735 55.8223 22.7236 55.8223 22.0237V17.5694Z"/><path d="M63.7969 17.5694C63.7969 16.8696 63.7969 16.5196 64.0125 16.3022C64.2281 16.0847 64.5751 16.0847 65.2691 16.0847H69.6858C70.3799 16.0847 70.7266 16.0847 70.9426 16.3022C71.1579 16.5196 71.1579 16.8696 71.1579 17.5694V22.0237C71.1579 22.7236 71.1579 23.0735 70.9426 23.291C70.7266 23.5084 70.3799 23.5084 69.6858 23.5084H65.2691C64.5751 23.5084 64.2281 23.5084 64.0125 23.291C63.7969 23.0735 63.7969 22.7236 63.7969 22.0237V17.5694Z"/><path d="M0 25.6118C0 24.9118 0 24.5619 0.215604 24.3444C0.431208 24.127 0.778214 24.127 1.47224 24.127H5.88894C6.58296 24.127 6.92997 24.127 7.14558 24.3444C7.36115 24.5619 7.36115 24.9118 7.36115 25.6118V30.0659C7.36115 30.7659 7.36115 31.1158 7.14558 31.3333C6.92997 31.5507 6.58296 31.5507 5.88894 31.5507H1.47224C0.778214 31.5507 0.431208 31.5507 0.215604 31.3333C0 31.1158 0 30.7659 0 30.0659V25.6118Z"/><path d="M7.97461 25.6118C7.97461 24.9118 7.97461 24.5619 8.19019 24.3444C8.40576 24.127 8.75277 24.127 9.4468 24.127H13.8635C14.5575 24.127 14.9045 24.127 15.1202 24.3444C15.3358 24.5619 15.3358 24.9118 15.3358 25.6118V30.0659C15.3358 30.7659 15.3358 31.1158 15.1202 31.3333C14.9045 31.5507 14.5575 31.5507 13.8635 31.5507H9.4468C8.75277 31.5507 8.40576 31.5507 8.19019 31.3333C7.97461 31.1158 7.97461 30.7659 7.97461 30.0659V25.6118Z"/><path d="M15.9492 25.6118C15.9492 24.9118 15.9492 24.5619 16.1649 24.3444C16.3804 24.127 16.7275 24.127 17.4215 24.127H21.8382C22.5322 24.127 22.8792 24.127 23.0948 24.3444C23.3104 24.5619 23.3104 24.9118 23.3104 25.6118V30.0659C23.3104 30.7659 23.3104 31.1158 23.0948 31.3333C22.8792 31.5507 22.5322 31.5507 21.8382 31.5507H17.4215C16.7275 31.5507 16.3804 31.5507 16.1649 31.3333C15.9492 31.1158 15.9492 30.7659 15.9492 30.0659V25.6118Z"/><path d="M23.9238 25.6118C23.9238 24.9118 23.9238 24.5619 24.1394 24.3444C24.355 24.127 24.7021 24.127 25.3961 24.127H29.8128C30.5067 24.127 30.8538 24.127 31.0694 24.3444C31.285 24.5619 31.285 24.9118 31.285 25.6118V30.0659C31.285 30.7659 31.285 31.1158 31.0694 31.3333C30.8538 31.5507 30.5067 31.5507 29.8128 31.5507H25.3961C24.7021 31.5507 24.355 31.5507 24.1394 31.3333C23.9238 31.1158 23.9238 30.7659 23.9238 30.0659V25.6118Z"/><path d="M31.8984 25.6118C31.8984 24.9118 31.8984 24.5619 32.1141 24.3444C32.3297 24.127 32.6767 24.127 33.3707 24.127H37.7874C38.4814 24.127 38.8284 24.127 39.044 24.3444C39.2597 24.5619 39.2597 24.9118 39.2597 25.6118V30.0659C39.2597 30.7659 39.2597 31.1158 39.044 31.3333C38.8284 31.5507 38.4814 31.5507 37.7874 31.5507H33.3707C32.6767 31.5507 32.3297 31.5507 32.1141 31.3333C31.8984 31.1158 31.8984 30.7659 31.8984 30.0659V25.6118Z"/><path d="M39.873 25.6118C39.873 24.9118 39.873 24.5619 40.0886 24.3444C40.3043 24.127 40.6513 24.127 41.3453 24.127H45.762C46.456 24.127 46.803 24.127 47.0186 24.3444C47.2342 24.5619 47.2342 24.9118 47.2342 25.6118V30.0659C47.2342 30.7659 47.2342 31.1158 47.0186 31.3333C46.803 31.5507 46.456 31.5507 45.762 31.5507H41.3453C40.6513 31.5507 40.3043 31.5507 40.0886 31.3333C39.873 31.1158 39.873 30.7659 39.873 30.0659V25.6118Z"/><path d="M47.8477 25.6118C47.8477 24.9118 47.8477 24.5619 48.0632 24.3444C48.2788 24.127 48.6258 24.127 49.3198 24.127H53.7365C54.4306 24.127 54.7776 24.127 54.9932 24.3444C55.2088 24.5619 55.2088 24.9118 55.2088 25.6118V30.0659C55.2088 30.7659 55.2088 31.1158 54.9932 31.3333C54.7776 31.5507 54.4306 31.5507 53.7365 31.5507H49.3198C48.6258 31.5507 48.2788 31.5507 48.0632 31.3333C47.8477 31.1158 47.8477 30.7659 47.8477 30.0659V25.6118Z"/><path d="M55.8223 25.6118C55.8223 24.9118 55.8223 24.5619 56.0379 24.3444C56.2535 24.127 56.6005 24.127 57.2945 24.127H61.7112C62.4053 24.127 62.7523 24.127 62.9678 24.3444C63.1835 24.5619 63.1835 24.9118 63.1835 25.6118V30.0659C63.1835 30.7659 63.1835 31.1158 62.9678 31.3333C62.7523 31.5507 62.4053 31.5507 61.7112 31.5507H57.2945C56.6005 31.5507 56.2535 31.5507 56.0379 31.3333C55.8223 31.1158 55.8223 30.7659 55.8223 30.0659V25.6118Z"/><path d="M63.7969 25.6118C63.7969 24.9118 63.7969 24.5619 64.0125 24.3444C64.2281 24.127 64.5751 24.127 65.2691 24.127H69.6858C70.3799 24.127 70.7266 24.127 70.9426 24.3444C71.1579 24.5619 71.1579 24.9118 71.1579 25.6118V30.0659C71.1579 30.7659 71.1579 31.1158 70.9426 31.3333C70.7266 31.5507 70.3799 31.5507 69.6858 31.5507H65.2691C64.5751 31.5507 64.2281 31.5507 64.0125 31.3333C63.7969 31.1158 63.7969 30.7659 63.7969 30.0659V25.6118Z"/><path d="M7.97461 33.6542C7.97461 32.9543 7.97461 32.6043 8.19019 32.3869C8.40576 32.1694 8.75277 32.1694 9.4468 32.1694H13.8635C14.5575 32.1694 14.9045 32.1694 15.1202 32.3869C15.3358 32.6043 15.3358 32.9543 15.3358 33.6542V38.1084C15.3358 38.8083 15.3358 39.1582 15.1202 39.3757C14.9045 39.5931 14.5575 39.5931 13.8635 39.5931H9.4468C8.75277 39.5931 8.40576 39.5931 8.19019 39.3757C7.97461 39.1582 7.97461 38.8083 7.97461 38.1084V33.6542Z"/><path d="M15.9492 33.6542C15.9492 32.9543 15.9492 32.6043 16.1649 32.3869C16.3804 32.1694 16.7275 32.1694 17.4215 32.1694H21.8382C22.5322 32.1694 22.8792 32.1694 23.0948 32.3869C23.3104 32.6043 23.3104 32.9543 23.3104 33.6542V38.1084C23.3104 38.8083 23.3104 39.1582 23.0948 39.3757C22.8792 39.5931 22.5322 39.5931 21.8382 39.5931H17.4215C16.7275 39.5931 16.3804 39.5931 16.1649 39.3757C15.9492 39.1582 15.9492 38.8083 15.9492 38.1084V33.6542Z"/><path d="M23.9238 33.6542C23.9238 32.9543 23.9238 32.6043 24.1394 32.3869C24.355 32.1694 24.7021 32.1694 25.3961 32.1694H29.8128C30.5067 32.1694 30.8538 32.1694 31.0694 32.3869C31.285 32.6043 31.285 32.9543 31.285 33.6542V38.1084C31.285 38.8083 31.285 39.1582 31.0694 39.3757C30.8538 39.5931 30.5067 39.5931 29.8128 39.5931H25.3961C24.7021 39.5931 24.355 39.5931 24.1394 39.3757C23.9238 39.1582 23.9238 38.8083 23.9238 38.1084V33.6542Z"/><path d="M31.8984 33.6542C31.8984 32.9543 31.8984 32.6043 32.1141 32.3869C32.3297 32.1694 32.6767 32.1694 33.3707 32.1694H37.7874C38.4814 32.1694 38.8284 32.1694 39.044 32.3869C39.2597 32.6043 39.2597 32.9543 39.2597 33.6542V38.1084C39.2597 38.8083 39.2597 39.1582 39.044 39.3757C38.8284 39.5931 38.4814 39.5931 37.7874 39.5931H33.3707C32.6767 39.5931 32.3297 39.5931 32.1141 39.3757C31.8984 39.1582 31.8984 38.8083 31.8984 38.1084V33.6542Z"/><path d="M39.873 33.6542C39.873 32.9543 39.873 32.6043 40.0886 32.3869C40.3043 32.1694 40.6513 32.1694 41.3453 32.1694H45.762C46.456 32.1694 46.803 32.1694 47.0186 32.3869C47.2342 32.6043 47.2342 32.9543 47.2342 33.6542V38.1084C47.2342 38.8083 47.2342 39.1582 47.0186 39.3757C46.803 39.5931 46.456 39.5931 45.762 39.5931H41.3453C40.6513 39.5931 40.3043 39.5931 40.0886 39.3757C39.873 39.1582 39.873 38.8083 39.873 38.1084V33.6542Z"/><path d="M47.8477 33.6542C47.8477 32.9543 47.8477 32.6043 48.0632 32.3869C48.2788 32.1694 48.6258 32.1694 49.3198 32.1694H53.7365C54.4306 32.1694 54.7776 32.1694 54.9932 32.3869C55.2088 32.6043 55.2088 32.9543 55.2088 33.6542V38.1084C55.2088 38.8083 55.2088 39.1582 54.9932 39.3757C54.7776 39.5931 54.4306 39.5931 53.7365 39.5931H49.3198C48.6258 39.5931 48.2788 39.5931 48.0632 39.3757C47.8477 39.1582 47.8477 38.8083 47.8477 38.1084V33.6542Z"/><path d="M55.8223 33.6542C55.8223 32.9543 55.8223 32.6043 56.0379 32.3869C56.2535 32.1694 56.6005 32.1694 57.2945 32.1694H61.7112C62.4053 32.1694 62.7523 32.1694 62.9678 32.3869C63.1835 32.6043 63.1835 32.9543 63.1835 33.6542V38.1084C63.1835 38.8083 63.1835 39.1582 62.9678 39.3757C62.7523 39.5931 62.4053 39.5931 61.7112 39.5931H57.2945C56.6005 39.5931 56.2535 39.5931 56.0379 39.3757C55.8223 39.1582 55.8223 38.8083 55.8223 38.1084V33.6542Z"/><path d="M15.9492 41.6965C15.9492 40.9965 15.9492 40.6466 16.1649 40.4291C16.3804 40.2117 16.7275 40.2117 17.4215 40.2117H21.8382C22.5322 40.2117 22.8792 40.2117 23.0948 40.4291C23.3104 40.6466 23.3104 40.9965 23.3104 41.6965V46.1507C23.3104 46.8506 23.3104 47.2005 23.0948 47.418C22.8792 47.6354 22.5322 47.6354 21.8382 47.6354H17.4215C16.7275 47.6354 16.3804 47.6354 16.1649 47.418C15.9492 47.2005 15.9492 46.8506 15.9492 46.1507V41.6965Z"/><path d="M23.9238 41.6965C23.9238 40.9965 23.9238 40.6466 24.1394 40.4291C24.355 40.2117 24.7021 40.2117 25.3961 40.2117H29.8128C30.5067 40.2117 30.8538 40.2117 31.0694 40.4291C31.285 40.6466 31.285 40.9965 31.285 41.6965V46.1507C31.285 46.8506 31.285 47.2005 31.0694 47.418C30.8538 47.6354 30.5067 47.6354 29.8128 47.6354H25.3961C24.7021 47.6354 24.355 47.6354 24.1394 47.418C23.9238 47.2005 23.9238 46.8506 23.9238 46.1507V41.6965Z"/><path d="M31.8984 41.6965C31.8984 40.9965 31.8984 40.6466 32.1141 40.4291C32.3297 40.2117 32.6767 40.2117 33.3707 40.2117H37.7874C38.4814 40.2117 38.8284 40.2117 39.044 40.4291C39.2597 40.6466 39.2597 40.9965 39.2597 41.6965V46.1507C39.2597 46.8506 39.2597 47.2005 39.044 47.418C38.8284 47.6354 38.4814 47.6354 37.7874 47.6354H33.3707C32.6767 47.6354 32.3297 47.6354 32.1141 47.418C31.8984 47.2005 31.8984 46.8506 31.8984 46.1507V41.6965Z"/><path d="M39.873 41.6965C39.873 40.9965 39.873 40.6466 40.0886 40.4291C40.3043 40.2117 40.6513 40.2117 41.3453 40.2117H45.762C46.456 40.2117 46.803 40.2117 47.0186 40.4291C47.2342 40.6466 47.2342 40.9965 47.2342 41.6965V46.1507C47.2342 46.8506 47.2342 47.2005 47.0186 47.418C46.803 47.6354 46.456 47.6354 45.762 47.6354H41.3453C40.6513 47.6354 40.3043 47.6354 40.0886 47.418C39.873 47.2005 39.873 46.8506 39.873 46.1507V41.6965Z"/><path d="M47.8477 41.6965C47.8477 40.9965 47.8477 40.6466 48.0632 40.4291C48.2788 40.2117 48.6258 40.2117 49.3198 40.2117H53.7365C54.4306 40.2117 54.7776 40.2117 54.9932 40.4291C55.2088 40.6466 55.2088 40.9965 55.2088 41.6965V46.1507C55.2088 46.8506 55.2088 47.2005 54.9932 47.418C54.7776 47.6354 54.4306 47.6354 53.7365 47.6354H49.3198C48.6258 47.6354 48.2788 47.6354 48.0632 47.418C47.8477 47.2005 47.8477 46.8506 47.8477 46.1507V41.6965Z"/><path d="M23.9238 49.7389C23.9238 49.0389 23.9238 48.689 24.1394 48.4716C24.355 48.2542 24.7021 48.2542 25.3961 48.2542H29.8128C30.5067 48.2542 30.8538 48.2542 31.0694 48.4716C31.285 48.689 31.285 49.0389 31.285 49.7389V54.1931C31.285 54.893 31.285 55.2429 31.0694 55.4604C30.8538 55.6779 30.5067 55.6779 29.8128 55.6779H25.3961C24.7021 55.6779 24.355 55.6779 24.1394 55.4604C23.9238 55.2429 23.9238 54.893 23.9238 54.1931V49.7389Z"/><path d="M31.8984 49.7389C31.8984 49.0389 31.8984 48.689 32.1141 48.4716C32.3297 48.2542 32.6767 48.2542 33.3707 48.2542H37.7874C38.4814 48.2542 38.8284 48.2542 39.044 48.4716C39.2597 48.689 39.2597 49.0389 39.2597 49.7389V54.1931C39.2597 54.893 39.2597 55.2429 39.044 55.4604C38.8284 55.6779 38.4814 55.6779 37.7874 55.6779H33.3707C32.6767 55.6779 32.3297 55.6779 32.1141 55.4604C31.8984 55.2429 31.8984 54.893 31.8984 54.1931V49.7389Z"/><path d="M39.873 49.7389C39.873 49.0389 39.873 48.689 40.0886 48.4716C40.3043 48.2542 40.6513 48.2542 41.3453 48.2542H45.762C46.456 48.2542 46.803 48.2542 47.0186 48.4716C47.2342 48.689 47.2342 49.0389 47.2342 49.7389V54.1931C47.2342 54.893 47.2342 55.2429 47.0186 55.4604C46.803 55.6779 46.456 55.6779 45.762 55.6779H41.3453C40.6513 55.6779 40.3043 55.6779 40.0886 55.4604C39.873 55.2429 39.873 54.893 39.873 54.1931V49.7389Z"/><path d="M31.8984 57.7811C31.8984 57.0812 31.8984 56.7313 32.1141 56.5138C32.3297 56.2964 32.6767 56.2964 33.3707 56.2964H37.7874C38.4814 56.2964 38.8284 56.2964 39.044 56.5138C39.2597 56.7313 39.2597 57.0812 39.2597 57.7811V62.2354C39.2597 62.9353 39.2597 63.2853 39.044 63.5026C38.8284 63.7201 38.4814 63.7201 37.7874 63.7201H33.3707C32.6767 63.7201 32.3297 63.7201 32.1141 63.5026C31.8984 63.2853 31.8984 62.9353 31.8984 62.2354V57.7811Z"/><path d="M98.6251 4.59929H104.891V24.5896H98.6251V4.59929ZM90.0112 1.83887H113.504V7.42035H90.0112V1.83887Z"/><path d="M121.534 25.0751C119.446 25.0751 117.578 24.6909 115.931 23.9224C114.305 23.154 113.02 22.0821 112.077 20.707C111.133 19.3116 110.661 17.6938 110.661 15.8535C110.661 14.0537 111.112 12.4763 112.016 11.1213C112.919 9.74618 114.155 8.67433 115.721 7.9059C117.307 7.1374 119.094 6.75317 121.082 6.75317C123.15 6.75317 124.907 7.20816 126.353 8.11824C127.819 9.00805 128.944 10.272 129.726 11.91C130.53 13.5481 130.931 15.4794 130.931 17.7039H115.631V13.9727H127.468L125.449 15.2771C125.369 14.3873 125.148 13.6391 124.787 13.0324C124.425 12.4055 123.944 11.9302 123.341 11.6067C122.759 11.2831 122.056 11.1213 121.233 11.1213C120.329 11.1213 119.556 11.3033 118.914 11.6673C118.271 12.0313 117.769 12.5369 117.407 13.184C117.046 13.811 116.865 14.5491 116.865 15.3984C116.865 16.4905 117.107 17.4208 117.588 18.1892C118.09 18.9374 118.813 19.5138 119.757 19.9183C120.721 20.3228 121.895 20.525 123.281 20.525C124.546 20.525 125.801 20.3632 127.046 20.0396C128.311 19.6958 129.455 19.2206 130.48 18.6139V22.5573C129.295 23.3663 127.94 23.9932 126.414 24.4381C124.907 24.8628 123.281 25.0751 121.534 25.0751Z"/><path d="M130.508 24.5897L138.49 14.8827L138.46 16.7028L130.96 7.2688H137.797L142.646 13.2446H140.839L145.689 7.2688H152.435L144.664 16.7634L144.363 14.3063L152.917 24.5897H145.929L140.658 18.1891H142.586L137.375 24.5897H130.508Z"/><path d="M153.904 7.2688H160.048V24.5897H153.904V7.2688ZM168.181 7.2688H174.325V24.5897H168.181V7.2688ZM157.458 13.4267H170.5V18.0374H157.458V13.4267Z"/><path d="M187.64 25.0751C185.43 25.0751 183.503 24.701 181.856 23.9528C180.21 23.1843 178.925 22.1125 178.001 20.7373C177.078 19.3419 176.615 17.7443 176.615 15.9445C176.615 14.1042 177.078 12.4965 178.001 11.1213C178.925 9.74618 180.21 8.67433 181.856 7.9059C183.503 7.1374 185.43 6.75317 187.64 6.75317C189.828 6.75317 191.746 7.1374 193.393 7.9059C195.059 8.67433 196.355 9.74618 197.278 11.1213C198.202 12.4965 198.663 14.1042 198.663 15.9445C198.663 17.7443 198.202 19.3419 197.278 20.7373C196.355 22.1125 195.059 23.1843 193.393 23.9528C191.746 24.701 189.828 25.0751 187.64 25.0751ZM187.64 20.4946C188.643 20.4946 189.497 20.3127 190.2 19.9486C190.923 19.5846 191.475 19.0588 191.856 18.3713C192.238 17.6837 192.428 16.8747 192.428 15.9445C192.428 14.9738 192.238 14.1547 191.856 13.4874C191.475 12.7998 190.923 12.274 190.2 11.91C189.497 11.546 188.643 11.364 187.64 11.364C186.635 11.364 185.772 11.546 185.049 11.91C184.326 12.274 183.774 12.7998 183.392 13.4874C183.011 14.1547 182.82 14.9637 182.82 15.9141C182.82 16.8646 183.011 17.6837 183.392 18.3713C183.774 19.0588 184.326 19.5846 185.049 19.9486C185.772 20.3127 186.635 20.4946 187.64 20.4946Z"/><path d="M203.492 7.2688H222.167V24.5897H215.992V9.02816L218.823 11.8796H206.564L209.155 9.4832C209.275 10.6763 209.366 11.7583 209.426 12.7289C209.486 13.6997 209.516 14.5692 209.516 15.3377C209.516 18.7352 208.994 21.1922 207.95 22.7089C206.926 24.2055 205.259 24.9537 202.95 24.9537C202.268 24.9537 201.625 24.8829 201.023 24.7414C200.42 24.5998 199.827 24.3673 199.245 24.0436V19.6452C199.607 19.7868 199.958 19.898 200.3 19.9788C200.661 20.0395 200.982 20.0699 201.263 20.0699C202.247 20.0699 202.94 19.6351 203.341 18.7655C203.743 17.8959 203.944 16.4702 203.944 14.4884C203.944 13.5379 203.904 12.466 203.823 11.2729C203.763 10.0596 203.653 8.7248 203.492 7.2688Z"/><path d="M235.482 25.0751C233.274 25.0751 231.346 24.701 229.699 23.9528C228.053 23.1843 226.768 22.1125 225.844 20.7373C224.92 19.3419 224.459 17.7443 224.459 15.9445C224.459 14.1042 224.92 12.4965 225.844 11.1213C226.768 9.74618 228.053 8.67433 229.699 7.9059C231.346 7.1374 233.274 6.75317 235.482 6.75317C237.671 6.75317 239.588 7.1374 241.235 7.9059C242.902 8.67433 244.197 9.74618 245.12 11.1213C246.044 12.4965 246.506 14.1042 246.506 15.9445C246.506 17.7443 246.044 19.3419 245.12 20.7373C244.197 22.1125 242.902 23.1843 241.235 23.9528C239.588 24.701 237.671 25.0751 235.482 25.0751ZM235.482 20.4946C236.486 20.4946 237.34 20.3127 238.043 19.9486C238.765 19.5846 239.317 19.0588 239.699 18.3713C240.081 17.6837 240.272 16.8747 240.272 15.9445C240.272 14.9738 240.081 14.1547 239.699 13.4874C239.317 12.7998 238.765 12.274 238.043 11.91C237.34 11.546 236.486 11.364 235.482 11.364C234.479 11.364 233.615 11.546 232.892 11.91C232.169 12.274 231.617 12.7998 231.235 13.4874C230.854 14.1547 230.663 14.9637 230.663 15.9141C230.663 16.8646 230.854 17.6837 231.235 18.3713C231.617 19.0588 232.169 19.5846 232.892 19.9486C233.615 20.3127 234.479 20.4946 235.482 20.4946Z"/><path d="M263.795 7.2688V11.9402H252.138L254.97 9.08882V24.5897H248.795V7.2688H263.795Z"/><path d="M265.584 24.5897V7.2688H271.668V21.2226L270.342 20.7979L279.349 7.2688H287.24V24.5897H281.186V10.2415L282.511 10.6966L273.264 24.5897H265.584Z"/><path d="M290.344 24.5897V7.2688H296.427V21.2226L295.103 20.7979L304.108 7.2688H312V24.5897H305.946V10.2415L307.271 10.6966L298.024 24.5897H290.344Z"/><path d="M90.0112 63.2964V53.1647H94.8903L96.8781 53.2253H112.541L114.107 53.1647H120.673V63.2964H114.83V58.7159H95.8545V63.2964H90.0112ZM94.7096 35.9651H116.787V56.9564H110.523V38.6042L113.354 41.4556H98.023L100.614 39.3626C100.774 40.2928 100.864 41.1927 100.885 42.0623C100.924 42.9318 100.945 43.761 100.945 44.5497C100.945 46.9158 100.734 48.9077 100.312 50.5256C99.9105 52.1434 99.2978 53.3669 98.4748 54.1961C97.6715 55.0251 96.6578 55.4397 95.4324 55.4397L92.8122 53.2557C93.6155 52.3052 94.2077 51.0109 94.5896 49.3729C94.9708 47.7146 95.1613 45.6721 95.1613 43.2453C95.1613 42.133 95.1211 40.9702 95.0413 39.7569C94.9609 38.5435 94.8501 37.2796 94.7096 35.9651Z"/><path d="M132.744 59.2011C130.535 59.2011 128.608 58.827 126.961 58.0787C125.315 57.3103 124.029 56.2384 123.106 54.8633C122.182 53.4679 121.72 51.8703 121.72 50.0705C121.72 48.2302 122.182 46.6225 123.106 45.2474C124.029 43.8721 125.315 42.8004 126.961 42.0319C128.608 41.2634 130.535 40.8792 132.744 40.8792C134.933 40.8792 136.851 41.2634 138.497 42.0319C140.164 42.8004 141.459 43.8721 142.383 45.2474C143.306 46.6225 143.768 48.2302 143.768 50.0705C143.768 51.8703 143.306 53.4679 142.383 54.8633C141.459 56.2384 140.164 57.3103 138.497 58.0787C136.851 58.827 134.933 59.2011 132.744 59.2011ZM132.744 54.6207C133.748 54.6207 134.602 54.4386 135.304 54.0746C136.027 53.7106 136.58 53.1848 136.961 52.4972C137.343 51.8096 137.533 51.0007 137.533 50.0705C137.533 49.0998 137.343 48.2807 136.961 47.6134C136.58 46.9258 136.027 46.4 135.304 46.036C134.602 45.672 133.748 45.49 132.744 45.49C131.74 45.49 130.877 45.672 130.154 46.036C129.431 46.4 128.879 46.9258 128.497 47.6134C128.116 48.2807 127.925 49.0896 127.925 50.0402C127.925 50.9907 128.116 51.8096 128.497 52.4972C128.879 53.1848 129.431 53.7106 130.154 54.0746C130.877 54.4386 131.74 54.6207 132.744 54.6207Z"/><path d="M156.991 59.2011C154.561 59.2011 152.483 58.7562 150.756 57.8663C149.049 56.9563 147.734 55.6519 146.81 53.9532C145.907 52.2343 145.455 50.1715 145.455 47.765C145.455 44.1856 146.439 41.3645 148.407 39.3017C150.374 37.2188 153.186 36.0155 156.84 35.692C158.346 35.5707 159.591 35.4695 160.575 35.3886C161.559 35.2875 162.362 35.1965 162.985 35.1156C163.627 35.0145 164.169 34.9134 164.611 34.8123C165.073 34.7111 165.515 34.5898 165.937 34.4482V39.4838C165.455 39.6657 164.882 39.8174 164.219 39.9388C163.557 40.0601 162.724 40.1612 161.72 40.2421C160.736 40.323 159.5 40.3938 158.015 40.4544C155.444 40.5555 153.557 41.2128 152.352 42.4262C151.168 43.6194 150.575 45.3585 150.575 47.6437V48.2807L150.395 47.8257C150.756 46.8145 151.338 45.945 152.142 45.217C152.945 44.4889 153.918 43.9328 155.063 43.5485C156.208 43.1441 157.453 42.9419 158.798 42.9419C160.545 42.9419 162.071 43.2655 163.376 43.9126C164.682 44.5597 165.695 45.4799 166.418 46.673C167.141 47.8661 167.503 49.2413 167.503 50.7985C167.503 52.4972 167.061 53.9836 166.177 55.2576C165.314 56.5115 164.099 57.4821 162.533 58.1697C160.967 58.8573 159.119 59.2011 156.991 59.2011ZM157.141 54.6206C157.985 54.6206 158.718 54.4689 159.34 54.1656C159.963 53.8622 160.444 53.4274 160.786 52.8612C161.128 52.295 161.298 51.6478 161.298 50.9198C161.298 50.1514 161.128 49.4941 160.786 48.9481C160.444 48.402 159.963 47.9773 159.34 47.6741C158.718 47.3707 157.985 47.219 157.141 47.219C155.957 47.219 154.883 47.5325 153.918 48.1594C152.975 48.766 152.272 49.6155 151.81 50.7074C152.092 51.8804 152.713 52.8309 153.678 53.5589C154.662 54.2667 155.816 54.6206 157.141 54.6206Z"/><path d="M169.817 41.3948H175.991V46.3697L175.72 47.0977V51.9512L175.991 53.3769V63.721H169.817V41.3948ZM174.034 50.0705C174.294 48.1897 174.837 46.5719 175.66 45.217C176.504 43.8419 177.567 42.7802 178.853 42.0319C180.138 41.2634 181.594 40.8792 183.22 40.8792C184.907 40.8792 186.383 41.2634 187.648 42.0319C188.933 42.8004 189.927 43.8721 190.63 45.2474C191.353 46.6225 191.714 48.2302 191.714 50.0705C191.714 51.8703 191.353 53.4679 190.63 54.8633C189.927 56.2384 188.933 57.3103 187.648 58.0787C186.383 58.827 184.907 59.2011 183.22 59.2011C181.594 59.2011 180.138 58.827 178.853 58.0787C177.567 57.3103 176.514 56.2384 175.69 54.8633C174.867 53.4881 174.315 51.8906 174.034 50.0705ZM185.509 50.0705C185.509 49.2009 185.329 48.4324 184.967 47.7651C184.626 47.0977 184.134 46.5719 183.491 46.1877C182.869 45.8035 182.156 45.6113 181.352 45.6113C180.529 45.6113 179.747 45.8035 179.003 46.1877C178.261 46.5719 177.608 47.0977 177.046 47.7651C176.483 48.4324 176.052 49.2009 175.751 50.0705C176.052 50.9198 176.483 51.6782 177.046 52.3455C177.608 53.0129 178.261 53.5387 179.003 53.9229C179.747 54.2869 180.529 54.469 181.352 54.469C182.156 54.469 182.869 54.2869 183.491 53.9229C184.134 53.5387 184.626 53.0129 184.967 52.3455C185.329 51.6782 185.509 50.9198 185.509 50.0705Z"/><path d="M209.619 58.7158L208.835 52.4669L209.648 50.0705L208.835 47.6741L209.619 41.3948H216.004L214.919 50.0402L216.004 58.7158H209.619ZM211.064 50.0705C210.783 51.8906 210.221 53.4881 209.377 54.8633C208.554 56.2384 207.5 57.3103 206.215 58.0787C204.95 58.827 203.504 59.2011 201.877 59.2011C200.191 59.2011 198.705 58.827 197.42 58.0787C196.155 57.3103 195.161 56.2384 194.438 54.8633C193.715 53.4679 193.354 51.8703 193.354 50.0705C193.354 48.2302 193.715 46.6225 194.438 45.2474C195.161 43.8721 196.155 42.8004 197.42 42.0319C198.705 41.2634 200.191 40.8792 201.877 40.8792C203.504 40.8792 204.95 41.2634 206.215 42.0319C207.5 42.7802 208.564 43.8419 209.408 45.217C210.251 46.5719 210.803 48.1897 211.064 50.0705ZM199.588 50.0705C199.588 50.9198 199.759 51.6782 200.101 52.3455C200.462 53.0129 200.954 53.5387 201.577 53.9229C202.199 54.2869 202.912 54.469 203.715 54.469C204.558 54.469 205.352 54.2869 206.094 53.9229C206.838 53.5387 207.49 53.0129 208.052 52.3455C208.614 51.6782 209.036 50.9198 209.317 50.0705C209.036 49.2009 208.614 48.4324 208.052 47.7651C207.49 47.0977 206.838 46.5719 206.094 46.1877C205.352 45.8035 204.558 45.6113 203.715 45.6113C202.912 45.6113 202.199 45.8035 201.577 46.1877C200.954 46.5719 200.462 47.0977 200.101 47.7651C199.759 48.4324 199.588 49.2009 199.588 50.0705Z"/></g><defs><clipPath id="clip0_656_352"><path fill="#fff" d="M0 0H312V64H0z"/></clipPath></defs></svg>