<svg width="48" height="48" viewBox="0 0 48 48" fill="none" xmlns="http://www.w3.org/2000/svg"><path fill-rule="evenodd" clip-rule="evenodd" d="M32 2C33.1046 2 34 2.89543 34 4V8H38C40.2091 8 42 9.79086 42 12V40C42 42.2091 40.2091 44 38 44H10C7.79086 44 6 42.2091 6 40V12C6 9.79086 7.79086 8 10 8H14V4C14 2.89543 14.8954 2 16 2C17.1046 2 18 2.89543 18 4V8H30V4C30 2.89543 30.8954 2 32 2Z" fill="#074739"/><path d="M31.5 25.8231H30.0415C27.0812 25.8231 24.6769 23.4188 24.6769 20.4585V19H22.3231V20.4585C22.3231 23.4188 19.9188 25.8231 16.9585 25.8231H15.5V28.1769H16.9585C19.9188 28.1769 22.3231 30.5812 22.3231 33.5415V35H24.6769V33.5415C24.6769 30.5812 27.0812 28.1769 30.0415 28.1769H31.5V25.8231Z" fill="#FDF5D4"/></svg>