<svg width="129" height="256" viewBox="0 0 129 256" fill="none" xmlns="http://www.w3.org/2000/svg"><path d="M64 192H0V256H64V192Z" fill="#FDF5D4"/><path d="M31.9952 250.268C43.9138 250.268 53.5758 240.606 53.5758 228.687C53.5758 216.768 43.9138 207.106 31.9952 207.106C20.0765 207.106 10.4146 216.768 10.4146 228.687C10.4146 240.606 20.0765 250.268 31.9952 250.268Z" fill="#A10D15"/><path d="M37.5734 208.012V206.817C37.5734 204.399 35.608 202.434 33.1898 202.434H31.9952H30.8006C28.3727 202.434 26.417 204.399 26.417 206.817V208.012H37.5734Z" fill="#FF866A"/><path d="M42.6697 227.117H40.7236C36.7736 227.117 33.5654 223.908 33.5654 219.958V218.012H30.4246V219.958C30.4246 223.908 27.2164 227.117 23.2664 227.117H21.3203V230.257H23.2664C27.2164 230.257 30.4246 233.465 30.4246 237.415V239.362H33.5654V237.415C33.5654 233.465 36.7736 230.257 40.7236 230.257H42.6697V227.117Z" fill="#FDF5D4"/><path d="M64 192H0V196.701H64V192Z" fill="#074739"/><path d="M33.5557 196.701H30.4438V207.097H33.5557V196.701Z" fill="#FF866A"/><path d="M128 192H64V256H128V192Z" fill="#074739"/><path d="M95.9952 250.268C107.914 250.268 117.576 240.606 117.576 228.687C117.576 216.768 107.914 207.106 95.9952 207.106C84.0765 207.106 74.4146 216.768 74.4146 228.687C74.4146 240.606 84.0765 250.268 95.9952 250.268Z" fill="#A10D15"/><path d="M101.573 208.012V206.817C101.573 204.399 99.608 202.434 97.1898 202.434H95.9952H94.8006C92.3727 202.434 90.417 204.399 90.417 206.817V208.012H101.573Z" fill="#FF866A"/><path d="M106.66 227.117H104.714C100.764 227.117 97.5561 223.908 97.5561 219.958V218.012H94.4154V219.958C94.4154 223.908 91.2072 227.117 87.2571 227.117H85.311V230.257H87.2571C91.2072 230.257 94.4154 233.465 94.4154 237.415V239.362H97.5561V237.415C97.5561 233.465 100.764 230.257 104.714 230.257H106.66V227.117Z" fill="#FDF5D4"/><path d="M128 192H64V196.701H128V192Z" fill="#278D75"/><path d="M97.5557 196.701H94.4438V207.097H97.5557V196.701Z" fill="#FF866A"/><path d="M64 128H0V192H64V128Z" fill="#278D75"/><path d="M11.4551 139.715V138.742C11.4551 136.767 13.0544 135.168 15.0294 135.168H16.0025V133.598H15.0294C13.0544 133.598 11.4551 131.998 11.4551 130.023V129.05H9.88474V130.023C9.88474 131.998 8.28547 133.598 6.31046 133.598H5.3374V135.168H6.31046C8.28547 135.168 9.88474 136.767 9.88474 138.742V139.715H11.4551Z" fill="#FDF5D4"/><path d="M63.9999 139.715H63.2099V138.742C63.2099 136.767 61.6107 135.168 59.6357 135.168H58.6626V133.598H59.6357C61.6107 133.598 63.2099 131.998 63.2099 130.023V129.05H63.9999V139.715Z" fill="#FDF5D4"/><path d="M16.7828 145.043V144.07C16.7828 142.095 18.382 140.496 20.357 140.496H21.3301V138.925H20.357C18.382 138.925 16.7828 137.326 16.7828 135.351V134.378H15.2124V135.351C15.2124 137.326 13.6131 138.925 11.6381 138.925H10.665V140.496H11.6381C13.6131 140.496 15.2124 142.095 15.2124 144.07V145.043H16.7828Z" fill="#FDF5D4"/><path d="M48.7876 145.043V144.07C48.7876 142.095 50.3869 140.496 52.3619 140.496H53.335V138.925H52.3619C50.3869 138.925 48.7876 137.326 48.7876 135.351V134.378H47.2173V135.351C47.2173 137.326 45.618 138.925 43.643 138.925H42.6699V140.496H43.643C45.618 140.496 47.2173 142.095 47.2173 144.07V145.043H48.7876Z" fill="#FDF5D4"/><path d="M27.4478 156.517V155.544C27.4478 153.569 29.0471 151.97 31.0221 151.97H31.9951V150.4H31.0221C29.0471 150.4 27.4478 148.8 27.4478 146.825V145.852H25.8774V146.825C25.8774 148.8 24.2781 150.4 22.3031 150.4H21.3301V151.97H22.3031C24.2781 151.97 25.8774 153.569 25.8774 155.544V156.517H27.4478Z" fill="#FDF5D4"/><path d="M6.11772 168.001V167.028C6.11772 165.053 7.71699 163.454 9.69201 163.454H10.6651V161.884H9.69201C7.71699 161.884 6.11772 160.284 6.11772 158.309V157.336H4.54734V158.309C4.54734 160.284 2.94807 161.884 0.973054 161.884H0V163.454H0.973054C2.94807 163.454 4.54734 165.053 4.54734 167.028V168.001H6.11772Z" fill="#FDF5D4"/><path d="M32.7852 174.138V173.165C32.7852 171.19 34.3845 169.591 36.3595 169.591H37.3325V168.02H36.3595C34.3845 168.02 32.7852 166.421 32.7852 164.446V163.473H31.2148V164.446C31.2148 166.421 29.6155 168.02 27.6405 168.02H26.6675V169.591H27.6405C29.6155 169.591 31.2148 171.19 31.2148 173.165V174.138H32.7852Z" fill="#FDF5D4"/><path d="M54.1153 174.138V173.165C54.1153 171.19 55.7146 169.591 57.6896 169.591H58.6626V168.02H57.6896C55.7146 168.02 54.1153 166.421 54.1153 164.446V163.473H52.5449V164.446C52.5449 166.421 50.9456 168.02 48.9706 168.02H47.9976V169.591H48.9706C50.9456 169.591 52.5449 171.19 52.5449 173.165V174.138H54.1153Z" fill="#FDF5D4"/><path d="M48.7876 179.476V178.503C48.7876 176.528 50.3869 174.928 52.3619 174.928H53.335V173.358H52.3619C50.3869 173.358 48.7876 171.759 48.7876 169.784V168.811H47.2173V169.784C47.2173 171.759 45.618 173.358 43.643 173.358H42.6699V174.928H43.643C45.618 174.928 47.2173 176.528 47.2173 178.503V179.476H48.7876Z" fill="#FDF5D4"/><path d="M11.4551 185.613V184.64C11.4551 182.665 13.0544 181.065 15.0294 181.065H16.0025V179.495H15.0294C13.0544 179.495 11.4551 177.896 11.4551 175.921V174.948H9.88474V175.921C9.88474 177.896 8.28547 179.495 6.31046 179.495H5.3374V181.065H6.31046C8.28547 181.065 9.88474 182.665 9.88474 184.64V185.613H11.4551Z" fill="#FDF5D4"/><path d="M59.4527 190.95V189.977C59.4527 188.002 61.052 186.403 63.027 186.403H64V184.832H63.027C61.052 184.832 59.4527 183.233 59.4527 181.258V180.285H57.8823V181.258C57.8823 183.233 56.283 184.832 54.308 184.832H53.335V186.403H54.308C56.283 186.403 57.8823 188.002 57.8823 189.977V190.95H59.4527Z" fill="#FDF5D4"/><path d="M128 128H64V192H128V128Z" fill="#A10D15"/><path d="M75.4551 139.715V138.742C75.4551 136.767 77.0544 135.168 79.0294 135.168H80.0025V133.598H79.0294C77.0544 133.598 75.4551 131.998 75.4551 130.023V129.05H73.8847V130.023C73.8847 131.998 72.2855 133.598 70.3105 133.598H69.3374V135.168H70.3105C72.2855 135.168 73.8847 136.767 73.8847 138.742V139.715H75.4551Z" fill="#FDF5D4"/><path d="M128 139.715H127.21V138.742C127.21 136.767 125.611 135.168 123.636 135.168H122.663V133.598H123.636C125.611 133.598 127.21 131.998 127.21 130.023V129.05H128V139.715Z" fill="#FDF5D4"/><path d="M80.7828 145.043V144.07C80.7828 142.095 82.382 140.496 84.357 140.496H85.3301V138.925H84.357C82.382 138.925 80.7828 137.326 80.7828 135.351V134.378H79.2124V135.351C79.2124 137.326 77.6131 138.925 75.6381 138.925H74.665V140.496H75.6381C77.6131 140.496 79.2124 142.095 79.2124 144.07V145.043H80.7828Z" fill="#FDF5D4"/><path d="M112.788 145.043V144.07C112.788 142.095 114.387 140.496 116.362 140.496H117.335V138.925H116.362C114.387 138.925 112.788 137.326 112.788 135.351V134.378H111.217V135.351C111.217 137.326 109.618 138.925 107.643 138.925H106.67V140.496H107.643C109.618 140.496 111.217 142.095 111.217 144.07V145.043H112.788Z" fill="#FDF5D4"/><path d="M91.4478 156.517V155.544C91.4478 153.569 93.0471 151.97 95.0221 151.97H95.9951V150.4H95.0221C93.0471 150.4 91.4478 148.8 91.4478 146.825V145.852H89.8774V146.825C89.8774 148.8 88.2781 150.4 86.3031 150.4H85.3301V151.97H86.3031C88.2781 151.97 89.8774 153.569 89.8774 155.544V156.517H91.4478Z" fill="#FDF5D4"/><path d="M70.1177 168.001V167.028C70.1177 165.053 71.717 163.454 73.692 163.454H74.6651V161.884H73.692C71.717 161.884 70.1177 160.284 70.1177 158.309V157.336H68.5473V158.309C68.5473 160.284 66.9481 161.884 64.9731 161.884H64V163.454H64.9731C66.9481 163.454 68.5473 165.053 68.5473 167.028V168.001H70.1177Z" fill="#FDF5D4"/><path d="M96.7852 174.138V173.165C96.7852 171.19 98.3845 169.591 100.359 169.591H101.333V168.02H100.359C98.3845 168.02 96.7852 166.421 96.7852 164.446V163.473H95.2148V164.446C95.2148 166.421 93.6155 168.02 91.6405 168.02H90.6675V169.591H91.6405C93.6155 169.591 95.2148 171.19 95.2148 173.165V174.138H96.7852Z" fill="#FDF5D4"/><path d="M118.115 174.138V173.165C118.115 171.19 119.715 169.591 121.69 169.591H122.663V168.02H121.69C119.715 168.02 118.115 166.421 118.115 164.446V163.473H116.545V164.446C116.545 166.421 114.946 168.02 112.971 168.02H111.998V169.591H112.971C114.946 169.591 116.545 171.19 116.545 173.165V174.138H118.115Z" fill="#FDF5D4"/><path d="M112.788 179.476V178.503C112.788 176.528 114.387 174.928 116.362 174.928H117.335V173.358H116.362C114.387 173.358 112.788 171.759 112.788 169.784V168.811H111.217V169.784C111.217 171.759 109.618 173.358 107.643 173.358H106.67V174.928H107.643C109.618 174.928 111.217 176.528 111.217 178.503V179.476H112.788Z" fill="#FDF5D4"/><path d="M75.4551 185.613V184.64C75.4551 182.665 77.0544 181.065 79.0294 181.065H80.0025V179.495H79.0294C77.0544 179.495 75.4551 177.896 75.4551 175.921V174.948H73.8847V175.921C73.8847 177.896 72.2855 179.495 70.3105 179.495H69.3374V181.065H70.3105C72.2855 181.065 73.8847 182.665 73.8847 184.64V185.613H75.4551Z" fill="#FDF5D4"/><path d="M123.453 190.95V189.977C123.453 188.002 125.052 186.403 127.027 186.403H128V184.832H127.027C125.052 184.832 123.453 183.233 123.453 181.258V180.285H121.882V181.258C121.882 183.233 120.283 184.832 118.308 184.832H117.335V186.403H118.308C120.283 186.403 121.882 188.002 121.882 189.977V190.95H123.453Z" fill="#FDF5D4"/><path d="M128.02 0H0.0195312V128H128.02V0Z" fill="#278D75"/><path d="M127.981 63.9904V54.5874H116.323C92.6232 54.5874 73.3934 35.3768 73.3934 11.6574V0H54.5874V11.6574C54.5874 35.3575 35.3768 54.5874 11.6574 54.5874H0V63.9904H127.981Z" fill="#074739"/><path d="M127.981 114.204V104.801H116.323C92.6232 104.801 73.3934 85.5904 73.3934 61.871V50.2136H54.5874V61.871C54.5874 85.5711 35.3768 104.801 11.6574 104.801H0V114.204H127.981Z" fill="#074739"/><path d="M76.457 128H51.543C53.5083 123.087 54.5874 117.711 54.5874 112.085V100.427H73.3933V112.085C73.3933 117.711 74.4724 123.087 76.4377 128H76.457Z" fill="#074739"/></svg>