<svg width="32" height="32" viewBox="0 0 32 32" fill="none" xmlns="http://www.w3.org/2000/svg">
<path fill-rule="evenodd" clip-rule="evenodd" d="M32 11.5C32 9.9085 31.37 8.3825 30.245 7.2575C29.12 6.132 27.59 5.5 26 5.5H22.235L21.29 3.6055C20.95 2.928 20.26 2.5 19.5 2.5H12.5C11.745 2.5 11.05 2.928 10.71 3.6055L9.76501 5.5H2C0.895 5.5 0 6.3955 0 7.5V23.5C0 26.8135 2.685 29.5 6 29.5H30C31.105 29.5 32 28.6045 32 27.5V11.5ZM16 9.5C11.585 9.5 8 13.0845 8 17.5C8 21.9155 11.585 25.5 16 25.5C20.415 25.5 24 21.9155 24 17.5C24 13.0845 20.415 9.5 16 9.5ZM16 11.5C12.69 11.5 10 14.1885 10 17.5C10 20.8115 12.69 23.5 16 23.5C19.31 23.5 22 20.8115 22 17.5C22 14.1885 19.31 11.5 16 11.5ZM5 12H6C7.105 12 8 11.104 8 10C8 8.896 7.105 8 6 8H5C3.895 8 3 8.896 3 10C3 11.104 3.895 12 5 12Z" fill="#FDF5D4"/>
</svg>
