<svg width="46" height="46" viewBox="0 0 46 46" fill="none" xmlns="http://www.w3.org/2000/svg">
<rect x="32.8995" y="9.89951" width="4" height="32" transform="rotate(45 32.8995 9.89951)" fill="#252628"/>
<rect x="10.2721" y="12.7279" width="4" height="32" transform="rotate(-45 10.2721 12.7279)" fill="#252628"/>
<path fill-rule="evenodd" clip-rule="evenodd" d="M25.8284 28.2843L23 25.4558L20.1716 28.2843C21.7337 26.7222 24.2663 26.7222 25.8284 28.2843Z" fill="#252628"/>
<path fill-rule="evenodd" clip-rule="evenodd" d="M28.6569 19.799L25.8284 22.6274L28.6569 25.4558C27.0948 23.8937 27.0948 21.3611 28.6569 19.799Z" fill="#252628"/>
<path fill-rule="evenodd" clip-rule="evenodd" d="M20.1716 16.9706L23 19.799L25.8284 16.9706C24.2663 18.5327 21.7337 18.5327 20.1716 16.9706Z" fill="#252628"/>
<path fill-rule="evenodd" clip-rule="evenodd" d="M17.3431 25.4558L20.1716 22.6274L17.3431 19.799C18.9052 21.3611 18.9052 23.8937 17.3431 25.4558Z" fill="#252628"/>
</svg>
