<svg width="192" height="56" viewBox="0 0 192 56" fill="none" xmlns="http://www.w3.org/2000/svg">
<g clip-path="url(#clip0_357_1710)">
<rect x="4" y="4" width="184" height="48.0048" rx="8" fill="#A10D15"/>
<path d="M52.0002 4.00465V52.0048H4.00007V4.00465H52.0002Z" fill="#A10D15"/>
<path d="M3.99998 27H52.0002V29H3.99998V27Z" fill="#FDF5D4"/>
<path d="M27 4H29V52.0003H27V4Z" fill="#FDF5D4"/>
<path d="M22 32.4633L22.954 31.5094C24.8921 29.5712 24.8921 26.4288 22.954 24.4907L22 23.5367L23.5367 22L24.4907 22.954C26.4288 24.8921 29.5712 24.8921 31.5093 22.954L32.4633 22L34 23.5367L33.046 24.4907C31.1079 26.4288 31.1079 29.5712 33.046 31.5094L34 32.4633L32.4633 34L31.5093 33.0461C29.5712 31.1079 26.4288 31.1079 24.4907 33.0461L23.5367 34L22 32.4633Z" fill="#FDF5D4"/>
<path d="M65.6802 36.0024V18.7224H79.1682V36.0024H77.0322V20.7504H67.8162V36.0024H65.6802ZM88.0518 36.3624C86.7638 36.3624 85.6518 36.0704 84.7158 35.4864C83.7878 34.9024 83.0718 34.0944 82.5678 33.0624C82.0638 32.0304 81.8118 30.8464 81.8118 29.5104C81.8118 28.1504 82.0678 26.9584 82.5798 25.9344C83.0918 24.9104 83.8158 24.1144 84.7518 23.5464C85.6878 22.9704 86.7878 22.6824 88.0518 22.6824C89.3478 22.6824 90.4638 22.9744 91.3998 23.5584C92.3358 24.1344 93.0518 24.9384 93.5478 25.9704C94.0518 26.9944 94.3038 28.1744 94.3038 29.5104C94.3038 30.8624 94.0518 32.0544 93.5478 33.0864C93.0438 34.1104 92.3238 34.9144 91.3878 35.4984C90.4518 36.0744 89.3398 36.3624 88.0518 36.3624ZM88.0518 34.3344C89.3958 34.3344 90.3958 33.8864 91.0518 32.9904C91.7078 32.0944 92.0358 30.9344 92.0358 29.5104C92.0358 28.0464 91.7038 26.8824 91.0398 26.0184C90.3758 25.1464 89.3798 24.7104 88.0518 24.7104C87.1478 24.7104 86.4038 24.9144 85.8198 25.3224C85.2358 25.7304 84.7998 26.2944 84.5118 27.0144C84.2238 27.7344 84.0798 28.5664 84.0798 29.5104C84.0798 30.9664 84.4158 32.1344 85.0878 33.0144C85.7598 33.8944 86.7478 34.3344 88.0518 34.3344ZM95.9859 38.8824V34.2384C96.7139 34.2384 97.2339 34.0024 97.5459 33.5304C97.8579 33.0504 98.1099 32.2624 98.3019 31.1664C98.4299 30.4784 98.5339 29.7424 98.6139 28.9584C98.6939 28.1744 98.7619 27.3024 98.8179 26.3424C98.8819 25.3744 98.9419 24.2744 98.9979 23.0424H107.926V34.2384H109.186V38.8824H107.146V36.0024H98.0259V38.8824H95.9859ZM99.2739 34.2384H105.79V24.8064H100.93C100.906 25.3744 100.874 25.9704 100.834 26.5944C100.794 27.2104 100.746 27.8264 100.69 28.4424C100.642 29.0584 100.582 29.6424 100.51 30.1944C100.446 30.7384 100.37 31.2264 100.282 31.6584C100.178 32.2584 100.058 32.7664 99.9219 33.1824C99.7859 33.5984 99.5699 33.9504 99.2739 34.2384ZM115.278 36.3624C114.31 36.3624 113.498 36.1864 112.842 35.8344C112.194 35.4744 111.702 35.0024 111.366 34.4184C111.038 33.8344 110.874 33.1944 110.874 32.4984C110.874 31.8184 111.002 31.2304 111.258 30.7344C111.522 30.2304 111.89 29.8144 112.362 29.4864C112.834 29.1504 113.398 28.8864 114.054 28.6944C114.67 28.5264 115.358 28.3824 116.118 28.2624C116.886 28.1344 117.662 28.0184 118.446 27.9144C119.23 27.8104 119.962 27.7104 120.642 27.6144L119.874 28.0584C119.898 26.9064 119.666 26.0544 119.178 25.5024C118.698 24.9504 117.866 24.6744 116.682 24.6744C115.898 24.6744 115.21 24.8544 114.618 25.2144C114.034 25.5664 113.622 26.1424 113.382 26.9424L111.354 26.3304C111.666 25.1944 112.27 24.3024 113.166 23.6544C114.062 23.0064 115.242 22.6824 116.706 22.6824C117.882 22.6824 118.89 22.8944 119.73 23.3184C120.578 23.7344 121.186 24.3664 121.554 25.2144C121.738 25.6144 121.854 26.0504 121.902 26.5224C121.95 26.9864 121.974 27.4744 121.974 27.9864V36.0024H120.078V32.8944L120.522 33.1824C120.034 34.2304 119.35 35.0224 118.47 35.5584C117.598 36.0944 116.534 36.3624 115.278 36.3624ZM115.602 34.5744C116.37 34.5744 117.034 34.4384 117.594 34.1664C118.162 33.8864 118.618 33.5224 118.962 33.0744C119.306 32.6184 119.53 32.1224 119.634 31.5864C119.754 31.1864 119.818 30.7424 119.826 30.2544C119.842 29.7584 119.85 29.3784 119.85 29.1144L120.594 29.4384C119.898 29.5344 119.214 29.6264 118.542 29.7144C117.87 29.8024 117.234 29.8984 116.634 30.0024C116.034 30.0984 115.494 30.2144 115.014 30.3504C114.662 30.4624 114.33 30.6064 114.018 30.7824C113.714 30.9584 113.466 31.1864 113.274 31.4664C113.09 31.7384 112.998 32.0784 112.998 32.4864C112.998 32.8384 113.086 33.1744 113.262 33.4944C113.446 33.8144 113.726 34.0744 114.102 34.2744C114.486 34.4744 114.986 34.5744 115.602 34.5744ZM131.046 36.3624C129.83 36.3624 128.806 36.0624 127.974 35.4624C127.142 34.8544 126.51 34.0344 126.078 33.0024C125.654 31.9624 125.442 30.7984 125.442 29.5104C125.442 28.2064 125.654 27.0384 126.078 26.0064C126.51 24.9744 127.142 24.1624 127.974 23.5704C128.814 22.9784 129.842 22.6824 131.058 22.6824C132.258 22.6824 133.29 22.9824 134.154 23.5824C135.026 24.1744 135.694 24.9864 136.158 26.0184C136.622 27.0504 136.854 28.2144 136.854 29.5104C136.854 30.8064 136.622 31.9704 136.158 33.0024C135.694 34.0344 135.026 34.8544 134.154 35.4624C133.29 36.0624 132.254 36.3624 131.046 36.3624ZM125.082 41.7624V23.0424H126.99V32.5824H127.23V41.7624H125.082ZM130.782 34.4064C131.638 34.4064 132.346 34.1904 132.906 33.7584C133.466 33.3264 133.886 32.7424 134.166 32.0064C134.446 31.2624 134.586 30.4304 134.586 29.5104C134.586 28.5984 134.446 27.7744 134.166 27.0384C133.894 26.3024 133.47 25.7184 132.894 25.2864C132.326 24.8544 131.602 24.6384 130.722 24.6384C129.882 24.6384 129.186 24.8464 128.634 25.2624C128.082 25.6704 127.67 26.2424 127.398 26.9784C127.126 27.7064 126.99 28.5504 126.99 29.5104C126.99 30.4544 127.122 31.2984 127.386 32.0424C127.658 32.7784 128.074 33.3584 128.634 33.7824C129.194 34.1984 129.91 34.4064 130.782 34.4064ZM145.005 36.3624C143.717 36.3624 142.605 36.0704 141.669 35.4864C140.741 34.9024 140.025 34.0944 139.521 33.0624C139.017 32.0304 138.765 30.8464 138.765 29.5104C138.765 28.1504 139.021 26.9584 139.533 25.9344C140.045 24.9104 140.769 24.1144 141.705 23.5464C142.641 22.9704 143.741 22.6824 145.005 22.6824C146.301 22.6824 147.417 22.9744 148.353 23.5584C149.289 24.1344 150.005 24.9384 150.501 25.9704C151.005 26.9944 151.257 28.1744 151.257 29.5104C151.257 30.8624 151.005 32.0544 150.501 33.0864C149.997 34.1104 149.277 34.9144 148.341 35.4984C147.405 36.0744 146.293 36.3624 145.005 36.3624ZM145.005 34.3344C146.349 34.3344 147.349 33.8864 148.005 32.9904C148.661 32.0944 148.989 30.9344 148.989 29.5104C148.989 28.0464 148.657 26.8824 147.993 26.0184C147.329 25.1464 146.333 24.7104 145.005 24.7104C144.101 24.7104 143.357 24.9144 142.773 25.3224C142.189 25.7304 141.753 26.2944 141.465 27.0144C141.177 27.7344 141.033 28.5664 141.033 29.5104C141.033 30.9664 141.369 32.1344 142.041 33.0144C142.713 33.8944 143.701 34.3344 145.005 34.3344ZM153.887 36.0024L153.899 23.0424H156.059V29.2824L161.495 23.0424H164.267L158.543 29.5224L164.939 36.0024H161.951L156.059 29.7624V36.0024H153.887ZM167.765 26.8584L166.193 25.7184L168.053 23.3784L165.173 22.5384L165.773 20.6904L168.581 21.7344L168.473 18.7224H170.417L170.309 21.7344L173.117 20.6904L173.717 22.5384L170.837 23.3784L172.685 25.7184L171.113 26.8584L169.445 24.3864L167.765 26.8584Z" fill="#FDF5D4"/>
</g>
<rect x="2" y="2" width="188" height="52.0048" rx="10" stroke="#278D75" stroke-width="4"/>
<defs>
<clipPath id="clip0_357_1710">
<rect x="4" y="4" width="184" height="48.0048" rx="8" fill="white"/>
</clipPath>
</defs>
</svg>
