<svg width="48" height="48" viewBox="0 0 48 48" fill="none" xmlns="http://www.w3.org/2000/svg">
<path d="M3.90938 3.90938C6.05515 1.76362 8.96543 0.55814 12 0.55814H47.4419V36C47.4419 39.0346 46.2364 41.9449 44.0906 44.0906C41.9449 46.2364 39.0346 47.4419 36 47.4419H12C8.96543 47.4419 6.05515 46.2364 3.90938 44.0906C1.76362 41.9449 0.55814 39.0346 0.55814 36V12C0.55814 8.96543 1.76362 6.05515 3.90938 3.90938Z" stroke="black" stroke-width="1.11628"/>
<path d="M39.6644 17.995H33.9032L28.415 23.9998V11.9998H23.9699V14.9243C23.8269 14.7358 23.6709 14.5506 23.5019 14.3686C22.5923 13.475 21.5057 12.7818 20.312 12.3335C19.1183 11.8853 17.844 11.6919 16.571 11.7659C15.349 11.7096 14.1307 11.9384 13.0124 12.4341C11.8941 12.9298 10.9064 13.6789 10.1275 14.6221C9.49711 15.3936 9.04025 16.2918 8.78794 17.2557C8.53563 18.2195 8.49378 19.2263 8.66523 20.2078C9.69854 24.8284 13.9877 25.5693 17.1364 25.9787C19.6222 26.3004 22.0105 26.7586 21.9422 28.9714C21.874 31.1842 19.281 31.8179 17.5458 31.8179C13.1104 31.8179 12.9642 28.5425 12.9642 28.5425H8.22656C8.30845 30.3405 8.99549 32.0581 10.1762 33.4166C11.8334 35.2785 14.3192 36.2143 17.5653 36.2143C19.9 36.2671 22.1737 35.4665 23.9601 33.9625V35.9121H28.4053V30.3069L29.9845 28.5912L34.4784 35.9706H39.6547L33.1429 25.1599L39.6644 17.995ZM13.1201 19.1647C12.7302 17.4491 14.4361 15.9283 16.6587 15.9283C18.6084 15.9283 20.6457 16.3768 21.4061 19.1647H23.9699V23.3954C20.7822 20.7829 13.861 22.4206 13.1201 19.1647Z" fill="black"/>
</svg>
