<svg width="25" height="36" viewBox="0 0 25 36" fill="none" xmlns="http://www.w3.org/2000/svg">
<path fill-rule="evenodd" clip-rule="evenodd" d="M19.0432 15.2179C17.3787 16.8268 15.0555 17.8324 12.5241 17.8324C9.95815 17.8324 7.66956 16.8268 6.00513 15.2179C4.30603 13.6089 3.26576 11.3631 3.26576 8.9162C3.26576 6.43575 4.30603 4.22346 5.97046 2.61453C7.63488 1.00559 9.95815 0 12.4895 0C15.0555 0 17.3441 1.00559 19.0085 2.61453C20.6729 4.22346 21.7132 6.46927 21.7132 8.9162C21.7479 11.3631 20.7076 13.6089 19.0432 15.2179ZM12.5241 4.82682C11.3798 4.82682 10.3396 5.26257 9.57672 6.03352C8.81385 6.77095 8.3284 7.77654 8.3284 8.88268C8.3284 9.98883 8.77918 10.9944 9.57672 11.7318C10.3396 12.4693 11.3798 12.9385 12.5241 12.9385C13.6684 12.9385 14.7087 12.5028 15.4716 11.7318C16.2344 10.9944 16.7199 9.98883 16.7199 8.88268C16.7199 7.77654 16.2691 6.77095 15.4716 6.03352C14.7087 5.29609 13.6684 4.82682 12.5241 4.82682ZM22.2333 17.8659C22.0946 17.6648 21.7825 17.6313 21.5745 17.7989C19.0085 19.9106 15.853 21.2849 12.4895 21.2849C9.12593 21.2849 5.97046 19.9106 3.40446 17.7989C3.19641 17.6313 2.95368 17.6648 2.7803 17.8659L0.0756045 21.4525C-0.0630979 21.6201 0.00625357 21.8883 0.144956 22.0223C2.43355 23.8324 5.06889 25.0056 7.84294 25.6425L2.60692 35.3631C2.46822 35.6313 2.67627 35.9665 2.98835 35.9665H8.57113C8.77918 35.9665 8.91788 35.8659 8.98723 35.6983L12.4895 27.6536L15.957 35.7318C16.0264 35.8994 16.1998 36 16.3731 36H21.9906C22.3027 36 22.5107 35.6983 22.372 35.3966L17.136 25.6425C19.91 25.0056 22.5801 23.7989 24.834 22.0223C25.042 21.8883 25.042 21.6536 24.9033 21.4525L22.2333 17.8659Z" fill="white"/>
</svg>
