<svg width="48" height="48" viewBox="0 0 48 48" fill="none" xmlns="http://www.w3.org/2000/svg">
<path d="M42 20C42 34 24 46 24 46C24 46 6 34 6 20C6 15.2261 7.89642 10.6477 11.2721 7.27208C14.6477 3.89642 19.2261 2 24 2C28.7739 2 33.3523 3.89642 36.7279 7.27208C40.1036 10.6477 42 15.2261 42 20Z" fill="#A10D15"/>
<path d="M32 18.8231H30.5415C27.5812 18.8231 25.1769 16.4188 25.1769 13.4585V12H22.8231V13.4585C22.8231 16.4188 20.4188 18.8231 17.4585 18.8231H16V21.1769H17.4585C20.4188 21.1769 22.8231 23.5812 22.8231 26.5415V28H25.1769V26.5415C25.1769 23.5812 27.5812 21.1769 30.5415 21.1769H32V18.8231Z" fill="#FDF5D4"/>
</svg>
